<?xml version="1.0" encoding="utf-8"?>
<!-- Generator: Adobe Illustrator 16.0.0, SVG Export Plug-In . SVG Version: 6.00 Build 0)  -->
<!DOCTYPE svg PUBLIC "-//W3C//DTD SVG 1.1//EN" "http://www.w3.org/Graphics/SVG/1.1/DTD/svg11.dtd">
<svg version="1.1" id="Layer_1" xmlns="http://www.w3.org/2000/svg" xmlns:xlink="http://www.w3.org/1999/xlink" x="0px" y="0px"
	 width="44.458px" height="12px" viewBox="-84.227 26.5 44.458 12" enable-background="new -84.227 26.5 44.458 12"
	 xml:space="preserve">
<g>
	<g>
		<path fill="#FFFFFF" d="M-69.019,31.376c-0.525,0-0.962,0.378-1.056,0.877h-3.148c-0.094-0.499-0.531-0.877-1.057-0.877
			c-0.362,0-0.681,0.18-0.877,0.455c-0.195-0.274-0.515-0.455-0.876-0.455c-0.525,0-0.962,0.378-1.056,0.877H-83
			c-0.11,0-0.199,0.089-0.199,0.198c0,0.11,0.089,0.199,0.199,0.199h5.912c0.093,0.498,0.531,0.876,1.056,0.876
			c0.361,0,0.681-0.179,0.876-0.455c0.196,0.275,0.515,0.455,0.877,0.455c0.525,0,0.963-0.378,1.057-0.876h3.148
			c0.094,0.498,0.531,0.876,1.056,0.876c0.593,0,1.075-0.482,1.075-1.075C-67.943,31.858-68.426,31.376-69.019,31.376z
			 M-76.033,33.129c-0.305,0-0.559-0.202-0.646-0.479l0,0c-0.009-0.03-0.017-0.059-0.022-0.09c-0.005-0.035-0.011-0.071-0.011-0.109
			c0-0.037,0.006-0.073,0.011-0.109c0.005-0.03,0.013-0.06,0.022-0.089c0.086-0.277,0.34-0.48,0.646-0.48
			c0.304,0,0.56,0.204,0.645,0.48c0.009,0.029,0.017,0.059,0.022,0.089c0.006,0.036,0.011,0.072,0.011,0.109
			c0,0.038-0.004,0.074-0.011,0.109c-0.006,0.031-0.013,0.06-0.022,0.09l0,0C-75.474,32.927-75.729,33.129-76.033,33.129z
			 M-74.279,33.129c-0.305,0-0.56-0.202-0.645-0.479l0,0c-0.009-0.03-0.017-0.059-0.022-0.09c-0.006-0.035-0.011-0.071-0.011-0.109
			c0-0.037,0.004-0.073,0.011-0.109c0.006-0.03,0.013-0.06,0.022-0.089c0.085-0.277,0.34-0.48,0.645-0.48
			c0.305,0,0.561,0.204,0.646,0.48c0.008,0.03,0.016,0.059,0.021,0.089c0.006,0.036,0.011,0.072,0.011,0.109
			c0,0.038-0.005,0.074-0.011,0.109c-0.005,0.031-0.013,0.06-0.021,0.09C-73.72,32.926-73.974,33.129-74.279,33.129z
			 M-69.019,33.129c-0.304,0-0.559-0.202-0.645-0.479l0,0c-0.009-0.03-0.017-0.059-0.021-0.09c-0.006-0.035-0.012-0.071-0.012-0.109
			c0-0.037,0.005-0.073,0.012-0.109c0.005-0.03,0.012-0.06,0.021-0.089l0,0c0.086-0.277,0.341-0.48,0.645-0.48
			s0.56,0.204,0.646,0.48c0.009,0.029,0.017,0.059,0.021,0.089c0.007,0.036,0.012,0.072,0.012,0.109
			c0,0.038-0.005,0.074-0.012,0.109c-0.004,0.031-0.012,0.06-0.021,0.09l0,0C-68.459,32.927-68.714,33.129-69.019,33.129z"/>
		<path fill="#FFFFFF" d="M-69.019,33.584c-0.361,0-0.682,0.18-0.876,0.455c-0.196-0.274-0.515-0.455-0.877-0.455
			c-0.525,0-0.962,0.378-1.056,0.876h-1.631c-0.093-0.498-0.53-0.876-1.056-0.876c-0.525,0-0.962,0.378-1.056,0.876h-1.378
			c-0.094-0.498-0.531-0.876-1.056-0.876c-0.525,0-0.963,0.378-1.057,0.876h-1.872c-0.109,0-0.198,0.089-0.198,0.199
			c0,0.11,0.089,0.199,0.198,0.199h1.872c0.093,0.499,0.531,0.876,1.057,0.876c0.525,0,0.962-0.378,1.056-0.876h1.378
			c0.094,0.499,0.531,0.876,1.056,0.876c0.525,0,0.962-0.378,1.056-0.876h1.631c0.093,0.499,0.531,0.876,1.056,0.876
			c0.362,0,0.681-0.18,0.877-0.455c0.194,0.274,0.515,0.455,0.876,0.455c0.593,0,1.075-0.481,1.075-1.075
			C-67.943,34.067-68.426,33.584-69.019,33.584z M-78.003,35.338c-0.305,0-0.561-0.203-0.646-0.48l0,0
			c-0.009-0.029-0.017-0.059-0.022-0.089c-0.007-0.036-0.011-0.071-0.011-0.109c0-0.038,0.004-0.073,0.011-0.109
			c0.005-0.03,0.013-0.06,0.022-0.09l0,0c0.085-0.276,0.34-0.479,0.646-0.479c0.304,0,0.559,0.203,0.645,0.479l0,0
			c0.008,0.03,0.016,0.06,0.021,0.09c0.006,0.036,0.012,0.071,0.012,0.109c0,0.038-0.005,0.073-0.012,0.109
			c-0.006,0.03-0.013,0.06-0.021,0.089l0,0C-77.444,35.135-77.699,35.338-78.003,35.338z M-74.514,35.338
			c-0.304,0-0.56-0.203-0.645-0.48l0,0c-0.009-0.029-0.017-0.059-0.022-0.089c-0.005-0.036-0.011-0.071-0.011-0.109
			c0-0.038,0.005-0.073,0.011-0.109c0.006-0.03,0.013-0.06,0.022-0.09l0,0c0.085-0.276,0.341-0.479,0.645-0.479
			c0.305,0,0.561,0.203,0.646,0.479l0,0c0.009,0.03,0.016,0.06,0.022,0.09c0.006,0.036,0.011,0.071,0.011,0.109
			c0,0.038-0.005,0.073-0.011,0.109c-0.006,0.03-0.013,0.06-0.022,0.089l0,0C-73.954,35.135-74.209,35.338-74.514,35.338z
			 M-70.772,35.338c-0.305,0-0.56-0.203-0.646-0.48l0,0c-0.008-0.029-0.016-0.059-0.021-0.089c-0.006-0.036-0.011-0.071-0.011-0.109
			c0-0.038,0.005-0.073,0.011-0.109c0.005-0.03,0.013-0.06,0.021-0.09l0,0c0.086-0.276,0.341-0.479,0.646-0.479
			s0.559,0.203,0.645,0.479l0,0c0.009,0.03,0.017,0.06,0.022,0.09c0.005,0.036,0.011,0.071,0.011,0.109
			c0,0.038-0.006,0.073-0.011,0.109c-0.006,0.03-0.013,0.06-0.022,0.089l0,0C-70.213,35.135-70.467,35.338-70.772,35.338z
			 M-69.019,35.338c-0.304,0-0.559-0.203-0.645-0.48l0,0c-0.009-0.029-0.017-0.059-0.021-0.089
			c-0.006-0.036-0.012-0.071-0.012-0.109c0-0.038,0.005-0.073,0.012-0.109c0.005-0.03,0.012-0.06,0.021-0.09l0,0
			c0.086-0.276,0.341-0.479,0.645-0.479s0.56,0.203,0.646,0.479l0,0c0.009,0.03,0.017,0.06,0.021,0.09
			c0.007,0.036,0.012,0.071,0.012,0.109c0,0.038-0.005,0.073-0.012,0.109c-0.004,0.03-0.012,0.06-0.021,0.089l0,0
			C-68.459,35.135-68.714,35.338-69.019,35.338z"/>
		<path fill="#FFFFFF" d="M-79.188,30.441h0.697c0.093,0.498,0.531,0.876,1.056,0.876s0.963-0.378,1.057-0.876h2.797
			c0.093,0.498,0.53,0.876,1.056,0.876c0.361,0,0.681-0.181,0.876-0.455c0.196,0.274,0.515,0.455,0.877,0.455
			s0.681-0.181,0.877-0.455c0.194,0.274,0.515,0.455,0.876,0.455c0.593,0,1.075-0.482,1.075-1.075c0-0.593-0.482-1.075-1.075-1.075
			c-0.361,0-0.682,0.18-0.876,0.455c-0.196-0.274-0.515-0.455-0.877-0.455s-0.681,0.18-0.877,0.455
			c-0.195-0.274-0.515-0.455-0.876-0.455c-0.525,0-0.962,0.378-1.056,0.876h-2.797c-0.093-0.499-0.532-0.876-1.057-0.876
			s-0.962,0.378-1.056,0.876h-0.697c-0.109,0-0.199,0.089-0.199,0.199C-79.387,30.353-79.297,30.441-79.188,30.441z M-69.019,29.565
			c0.305,0,0.56,0.204,0.646,0.48c0.009,0.028,0.017,0.059,0.021,0.088c0.007,0.036,0.012,0.072,0.012,0.109
			c0,0.038-0.005,0.073-0.012,0.109c-0.004,0.031-0.012,0.06-0.021,0.09c-0.086,0.276-0.341,0.479-0.646,0.479
			s-0.559-0.203-0.645-0.479l0,0c-0.009-0.03-0.017-0.059-0.021-0.09c-0.006-0.036-0.012-0.071-0.012-0.109
			c0-0.037,0.005-0.073,0.012-0.109c0.005-0.03,0.012-0.06,0.021-0.089C-69.578,29.769-69.323,29.565-69.019,29.565z
			 M-70.772,29.565c0.305,0,0.559,0.204,0.646,0.48c0.008,0.028,0.016,0.059,0.021,0.088c0.005,0.036,0.011,0.072,0.011,0.109
			c0,0.038-0.006,0.073-0.011,0.109c-0.006,0.031-0.013,0.06-0.022,0.09c-0.086,0.276-0.34,0.479-0.645,0.479
			s-0.56-0.203-0.646-0.479c-0.008-0.03-0.016-0.059-0.021-0.09c-0.006-0.036-0.011-0.071-0.011-0.109
			c0-0.037,0.005-0.073,0.011-0.109c0.005-0.029,0.013-0.06,0.021-0.088C-71.332,29.769-71.077,29.565-70.772,29.565z
			 M-72.525,29.565c0.305,0,0.56,0.204,0.645,0.48c0.009,0.028,0.017,0.059,0.022,0.088c0.006,0.036,0.011,0.072,0.011,0.109
			c0,0.038-0.005,0.073-0.011,0.109c-0.005,0.031-0.013,0.06-0.022,0.09c-0.085,0.276-0.34,0.479-0.645,0.479
			c-0.304,0-0.56-0.203-0.646-0.479c-0.009-0.03-0.017-0.059-0.022-0.09c-0.006-0.036-0.011-0.071-0.011-0.109
			c0-0.037,0.005-0.073,0.011-0.109c0.005-0.029,0.013-0.06,0.022-0.088C-73.085,29.769-72.831,29.565-72.525,29.565z
			 M-77.435,29.565c0.305,0,0.56,0.204,0.646,0.48c0.008,0.028,0.016,0.059,0.021,0.088c0.005,0.036,0.011,0.072,0.011,0.109
			c0,0.038-0.006,0.073-0.011,0.109c-0.006,0.031-0.013,0.06-0.021,0.09c-0.086,0.276-0.341,0.479-0.646,0.479
			c-0.304,0-0.56-0.203-0.645-0.479c-0.009-0.03-0.017-0.059-0.022-0.09c-0.005-0.036-0.011-0.071-0.011-0.109
			c0-0.037,0.006-0.073,0.011-0.109c0.005-0.029,0.013-0.06,0.022-0.088C-77.995,29.769-77.739,29.565-77.435,29.565z"/>
	</g>
	<g>
		<path fill="#FFFFFF" d="M-66.229,29.265c0-0.058,0.039-0.097,0.096-0.097h0.946c0.058,0,0.097,0.039,0.097,0.097v3.085
			l2.479-3.105c0.047-0.058,0.086-0.078,0.153-0.078h1.099c0.058,0,0.088,0.067,0.039,0.125l-2.035,2.45l2.267,3.868
			c0.039,0.068,0.009,0.117-0.067,0.117h-1.071c-0.078,0-0.106-0.02-0.146-0.079l-1.716-3.027l-1.003,1.215v1.794
			c0,0.059-0.039,0.097-0.097,0.097h-0.946c-0.058,0-0.096-0.039-0.096-0.097V29.265z"/>
		<path fill="#FFFFFF" d="M-60.123,29.265c0-0.058,0.038-0.097,0.096-0.097h0.945c0.058,0,0.097,0.039,0.097,0.097v2.584
			c0,0.038,0.019,0.058,0.057,0.058h2.499c0.038,0,0.058-0.02,0.058-0.058v-2.584c0-0.058,0.039-0.097,0.096-0.097h0.945
			c0.058,0,0.097,0.039,0.097,0.097v6.365c0,0.059-0.04,0.097-0.097,0.097h-0.945c-0.058,0-0.096-0.039-0.096-0.097v-2.643
			c0-0.039-0.02-0.059-0.058-0.059h-2.499c-0.039,0-0.057,0.02-0.057,0.059v2.643c0,0.059-0.039,0.097-0.097,0.097h-0.945
			c-0.058,0-0.096-0.039-0.096-0.097V29.265z"/>
		<path fill="#FFFFFF" d="M-53.787,29.265c0-0.058,0.039-0.097,0.096-0.097h0.946c0.058,0,0.097,0.039,0.097,0.097v6.365
			c0,0.059-0.039,0.097-0.097,0.097h-0.946c-0.057,0-0.096-0.039-0.096-0.097V29.265z"/>
		<path fill="#FFFFFF" d="M-51.106,35.727c-0.057,0-0.096-0.039-0.096-0.097v-6.366c0-0.057,0.039-0.096,0.096-0.096h2.46
			c1.274,0,2.161,0.82,2.161,2.036c0,1.225-0.887,2.045-2.161,2.045h-1.36c-0.039,0-0.058,0.019-0.058,0.057v2.325
			c0,0.059-0.038,0.097-0.096,0.097H-51.106z M-47.624,31.203c0-0.598-0.414-1.013-1.09-1.013h-1.292
			c-0.039,0-0.058,0.02-0.058,0.058v1.91c0,0.038,0.02,0.057,0.058,0.057h1.292C-48.038,32.215-47.624,31.811-47.624,31.203"/>
		<path fill="#FFFFFF" d="M-41.78,33.402v-4.138c0-0.058,0.039-0.097,0.097-0.097h0.945c0.058,0,0.097,0.039,0.097,0.097v4.157
			c0,1.523-1.033,2.411-2.421,2.411c-1.379,0-2.411-0.888-2.411-2.411v-4.157c0-0.058,0.038-0.097,0.096-0.097h0.945
			c0.058,0,0.097,0.039,0.097,0.097v4.138c0,0.907,0.531,1.408,1.273,1.408C-42.31,34.81-41.78,34.309-41.78,33.402"/>
	</g>
</g>
</svg>
