<?xml version="1.0" encoding="utf-8"?>
<!-- Generator: Adobe Illustrator 16.0.0, SVG Export Plug-In . SVG Version: 6.00 Build 0)  -->
<!DOCTYPE svg PUBLIC "-//W3C//DTD SVG 1.1//EN" "http://www.w3.org/Graphics/SVG/1.1/DTD/svg11.dtd">
<svg version="1.1" id="Layer_1" xmlns="http://www.w3.org/2000/svg" xmlns:xlink="http://www.w3.org/1999/xlink" x="0px" y="0px"
	 width="44.458px" height="12px" viewBox="0 0 44.458 12" enable-background="new 0 0 44.458 12" xml:space="preserve">
<g>
	<g>
		<path fill="#F05A28" d="M15.13,4.876c-0.525,0-0.962,0.378-1.056,0.877h-3.148c-0.094-0.499-0.531-0.877-1.057-0.877
			c-0.362,0-0.681,0.181-0.877,0.455C8.797,5.057,8.477,4.876,8.116,4.876c-0.525,0-0.962,0.378-1.056,0.877H1.149
			c-0.11,0-0.199,0.089-0.199,0.198c0,0.109,0.089,0.199,0.199,0.199h5.912c0.093,0.499,0.531,0.875,1.056,0.875
			c0.361,0,0.681-0.178,0.876-0.455C9.189,6.846,9.508,7.025,9.87,7.025c0.525,0,0.963-0.377,1.057-0.875h3.148
			c0.094,0.499,0.531,0.875,1.056,0.875c0.593,0,1.075-0.48,1.075-1.074C16.206,5.358,15.723,4.876,15.13,4.876z M8.116,6.629
			c-0.305,0-0.559-0.202-0.646-0.478l0,0c-0.009-0.03-0.017-0.06-0.022-0.09C7.443,6.026,7.437,5.99,7.437,5.952
			c0-0.037,0.006-0.073,0.011-0.109c0.005-0.029,0.013-0.06,0.022-0.089c0.086-0.276,0.34-0.479,0.646-0.479
			c0.304,0,0.56,0.203,0.645,0.479c0.009,0.029,0.017,0.06,0.022,0.089c0.006,0.036,0.011,0.072,0.011,0.109
			c0,0.038-0.004,0.074-0.011,0.109c-0.006,0.03-0.013,0.06-0.022,0.09l0,0C8.675,6.427,8.42,6.629,8.116,6.629z M9.87,6.629
			c-0.305,0-0.56-0.202-0.645-0.478l0,0c-0.009-0.03-0.017-0.06-0.022-0.09C9.197,6.026,9.192,5.99,9.192,5.952
			c0-0.037,0.004-0.073,0.011-0.109c0.006-0.029,0.013-0.06,0.022-0.089c0.085-0.277,0.34-0.48,0.645-0.48
			c0.305,0,0.561,0.203,0.646,0.479c0.008,0.03,0.016,0.06,0.021,0.089c0.006,0.036,0.011,0.072,0.011,0.109
			c0,0.038-0.005,0.074-0.011,0.109c-0.005,0.03-0.013,0.06-0.021,0.09C10.429,6.426,10.175,6.629,9.87,6.629z M15.13,6.629
			c-0.304,0-0.559-0.202-0.645-0.478l0,0c-0.009-0.03-0.017-0.06-0.021-0.09c-0.006-0.035-0.012-0.071-0.012-0.109
			c0-0.037,0.005-0.073,0.012-0.109c0.005-0.029,0.012-0.06,0.021-0.089l0,0c0.086-0.276,0.341-0.479,0.645-0.479
			c0.304,0,0.56,0.203,0.646,0.479c0.009,0.029,0.017,0.06,0.021,0.089c0.007,0.036,0.012,0.072,0.012,0.109
			c0,0.038-0.005,0.074-0.012,0.109c-0.004,0.03-0.012,0.06-0.021,0.09l0,0C15.69,6.427,15.435,6.629,15.13,6.629z"/>
		<path fill="#F05A28" d="M15.13,7.084c-0.361,0-0.682,0.18-0.876,0.455c-0.196-0.273-0.515-0.455-0.877-0.455
			c-0.525,0-0.962,0.379-1.056,0.877H10.69c-0.093-0.498-0.53-0.877-1.056-0.877c-0.525,0-0.962,0.379-1.056,0.877H7.2
			C7.106,7.463,6.669,7.084,6.144,7.084S5.181,7.463,5.087,7.961H3.215c-0.109,0-0.198,0.088-0.198,0.199
			c0,0.109,0.089,0.197,0.198,0.197h1.872c0.093,0.5,0.531,0.877,1.057,0.877c0.525,0,0.962-0.379,1.056-0.877h1.378
			c0.094,0.5,0.531,0.877,1.056,0.877c0.525,0,0.962-0.379,1.056-0.877h1.631c0.093,0.5,0.531,0.877,1.056,0.877
			c0.362,0,0.681-0.18,0.877-0.455c0.194,0.272,0.515,0.455,0.876,0.455c0.593,0,1.075-0.48,1.075-1.074
			C16.206,7.566,15.723,7.084,15.13,7.084z M6.146,8.838c-0.305,0-0.561-0.203-0.646-0.48l0,0C5.491,8.33,5.483,8.299,5.478,8.27
			C5.471,8.232,5.467,8.199,5.467,8.16c0-0.037,0.004-0.072,0.011-0.109C5.483,8.021,5.491,7.992,5.5,7.961l0,0
			c0.085-0.275,0.34-0.479,0.646-0.479c0.304,0,0.559,0.203,0.645,0.479l0,0c0.008,0.031,0.016,0.061,0.021,0.09
			C6.818,8.088,6.824,8.123,6.824,8.16c0,0.039-0.005,0.072-0.012,0.109C6.806,8.299,6.799,8.33,6.791,8.357l0,0
			C6.705,8.635,6.45,8.838,6.146,8.838z M9.635,8.838c-0.304,0-0.56-0.203-0.645-0.48l0,0C8.981,8.33,8.973,8.299,8.968,8.27
			C8.963,8.232,8.957,8.199,8.957,8.16c0-0.037,0.005-0.072,0.011-0.109c0.006-0.029,0.013-0.059,0.022-0.09l0,0
			c0.085-0.275,0.341-0.479,0.645-0.479c0.305,0,0.561,0.203,0.646,0.479l0,0c0.009,0.031,0.016,0.061,0.022,0.09
			c0.006,0.037,0.011,0.072,0.011,0.109c0,0.039-0.005,0.072-0.011,0.109c-0.006,0.028-0.013,0.061-0.022,0.088l0,0
			C10.195,8.635,9.94,8.838,9.635,8.838z M13.377,8.838c-0.305,0-0.56-0.203-0.646-0.48l0,0C12.723,8.33,12.715,8.299,12.71,8.27
			c-0.006-0.037-0.011-0.069-0.011-0.108c0-0.037,0.005-0.072,0.011-0.109c0.005-0.028,0.013-0.059,0.021-0.09l0,0
			c0.086-0.274,0.341-0.479,0.646-0.479s0.559,0.203,0.645,0.479l0,0c0.009,0.031,0.017,0.062,0.022,0.09
			c0.005,0.037,0.011,0.072,0.011,0.109c0,0.039-0.006,0.071-0.011,0.108c-0.006,0.029-0.013,0.062-0.022,0.088l0,0
			C13.936,8.635,13.682,8.838,13.377,8.838z M15.13,8.838c-0.304,0-0.559-0.203-0.645-0.48l0,0
			c-0.009-0.026-0.017-0.059-0.021-0.088c-0.006-0.037-0.012-0.069-0.012-0.108c0-0.037,0.005-0.072,0.012-0.109
			c0.005-0.028,0.012-0.059,0.021-0.09l0,0c0.086-0.274,0.341-0.479,0.645-0.479c0.304,0,0.56,0.203,0.646,0.479l0,0
			c0.009,0.031,0.017,0.062,0.021,0.09c0.007,0.037,0.012,0.072,0.012,0.109c0,0.039-0.005,0.071-0.012,0.108
			c-0.004,0.029-0.012,0.062-0.021,0.088l0,0C15.69,8.635,15.435,8.838,15.13,8.838z"/>
		<path fill="#F05A28" d="M4.961,3.942h0.697C5.751,4.44,6.189,4.817,6.714,4.817S7.677,4.44,7.771,3.942h2.797
			c0.093,0.498,0.53,0.875,1.056,0.875c0.361,0,0.681-0.181,0.876-0.455c0.196,0.274,0.515,0.455,0.877,0.455
			s0.681-0.181,0.877-0.455c0.194,0.274,0.515,0.455,0.876,0.455c0.593,0,1.075-0.481,1.075-1.074c0-0.594-0.482-1.075-1.075-1.075
			c-0.361,0-0.682,0.181-0.876,0.455c-0.196-0.274-0.515-0.455-0.877-0.455s-0.681,0.18-0.877,0.455
			c-0.195-0.274-0.515-0.455-0.876-0.455c-0.525,0-0.962,0.378-1.056,0.876H7.771c-0.093-0.5-0.532-0.877-1.057-0.877
			S5.752,3.045,5.658,3.543H4.961c-0.109,0-0.199,0.089-0.199,0.199C4.762,3.854,4.852,3.942,4.961,3.942z M15.13,3.065
			c0.305,0,0.56,0.205,0.646,0.48c0.009,0.028,0.017,0.059,0.021,0.088c0.007,0.036,0.012,0.072,0.012,0.109
			c0,0.038-0.005,0.072-0.012,0.109c-0.004,0.03-0.012,0.06-0.021,0.09C15.69,4.217,15.435,4.42,15.13,4.42
			c-0.305,0-0.559-0.203-0.645-0.479l0,0c-0.009-0.03-0.017-0.06-0.021-0.09c-0.006-0.037-0.012-0.071-0.012-0.109
			c0-0.037,0.005-0.073,0.012-0.109c0.005-0.029,0.012-0.06,0.021-0.089C14.571,3.27,14.826,3.065,15.13,3.065z M13.377,3.065
			c0.305,0,0.559,0.205,0.646,0.48c0.008,0.028,0.016,0.059,0.021,0.088c0.005,0.036,0.011,0.072,0.011,0.109
			c0,0.038-0.006,0.072-0.011,0.109c-0.006,0.03-0.013,0.06-0.022,0.09c-0.086,0.275-0.34,0.479-0.645,0.479
			s-0.56-0.203-0.646-0.479c-0.008-0.03-0.016-0.06-0.021-0.09c-0.006-0.037-0.011-0.071-0.011-0.109
			c0-0.037,0.005-0.073,0.011-0.109c0.005-0.029,0.013-0.06,0.021-0.088C12.817,3.27,13.072,3.065,13.377,3.065z M11.624,3.065
			c0.305,0,0.56,0.205,0.645,0.48c0.009,0.028,0.017,0.059,0.022,0.088c0.006,0.036,0.011,0.072,0.011,0.109
			c0,0.038-0.005,0.072-0.011,0.109c-0.005,0.03-0.013,0.06-0.022,0.09c-0.085,0.275-0.34,0.479-0.645,0.479
			c-0.304,0-0.56-0.203-0.646-0.479c-0.009-0.03-0.017-0.06-0.022-0.09c-0.006-0.037-0.011-0.071-0.011-0.109
			c0-0.037,0.005-0.073,0.011-0.109c0.005-0.029,0.013-0.06,0.022-0.088C11.064,3.27,11.318,3.065,11.624,3.065z M6.714,3.065
			c0.305,0,0.56,0.205,0.646,0.48c0.008,0.028,0.016,0.059,0.021,0.088c0.005,0.036,0.011,0.072,0.011,0.109
			c0,0.038-0.006,0.072-0.011,0.109c-0.006,0.03-0.013,0.06-0.021,0.09C7.274,4.217,7.019,4.42,6.714,4.42
			c-0.304,0-0.56-0.203-0.645-0.479c-0.009-0.03-0.017-0.06-0.022-0.09c-0.005-0.036-0.011-0.07-0.011-0.108
			c0-0.037,0.006-0.073,0.011-0.109c0.005-0.029,0.013-0.06,0.022-0.088C6.154,3.27,6.41,3.065,6.714,3.065z"/>
	</g>
	<g>
		<path d="M17.92,2.766c0-0.059,0.039-0.098,0.096-0.098h0.946c0.058,0,0.097,0.039,0.097,0.098V5.85l2.479-3.104
			c0.047-0.058,0.086-0.078,0.153-0.078h1.099c0.06,0,0.088,0.067,0.039,0.125l-2.035,2.45l2.267,3.866
			c0.039,0.068,0.009,0.117-0.066,0.117h-1.072c-0.078,0-0.106-0.02-0.146-0.078l-1.716-3.026l-1.003,1.214v1.795
			c0,0.059-0.039,0.096-0.097,0.096h-0.946c-0.058,0-0.096-0.039-0.096-0.096L17.92,2.766L17.92,2.766z"/>
		<path d="M24.026,2.766c0-0.059,0.038-0.098,0.096-0.098h0.945c0.059,0,0.098,0.039,0.098,0.098V5.35
			c0,0.037,0.02,0.058,0.058,0.058h2.498c0.038,0,0.059-0.021,0.059-0.058V2.766c0-0.059,0.039-0.098,0.097-0.098h0.944
			c0.06,0,0.099,0.039,0.099,0.098v6.365c0,0.059-0.041,0.096-0.099,0.096h-0.944c-0.059,0-0.097-0.039-0.097-0.096V6.487
			c0-0.038-0.021-0.059-0.059-0.059h-2.498c-0.039,0-0.058,0.021-0.058,0.059v2.644c0,0.059-0.039,0.096-0.098,0.096h-0.945
			c-0.058,0-0.096-0.039-0.096-0.096V2.766z"/>
		<path d="M30.362,2.766c0-0.059,0.039-0.098,0.096-0.098h0.946c0.058,0,0.097,0.039,0.097,0.098v6.365
			c0,0.059-0.039,0.096-0.097,0.096h-0.946c-0.057,0-0.096-0.039-0.096-0.096V2.766z"/>
		<path d="M33.043,9.227c-0.059,0-0.098-0.039-0.098-0.096V2.764c0-0.057,0.039-0.096,0.098-0.096h2.459
			c1.273,0,2.162,0.82,2.162,2.036c0,1.226-0.889,2.045-2.162,2.045h-1.359c-0.039,0-0.059,0.019-0.059,0.058V9.13
			c0,0.06-0.037,0.099-0.097,0.099h-0.944V9.227z M36.525,4.704c0-0.598-0.414-1.014-1.09-1.014h-1.292
			c-0.039,0-0.059,0.021-0.059,0.059v1.91c0,0.037,0.021,0.057,0.059,0.057h1.292C36.111,5.715,36.525,5.311,36.525,4.704"/>
		<path d="M42.37,6.902V2.764c0-0.058,0.039-0.097,0.096-0.097h0.945c0.06,0,0.098,0.039,0.098,0.097v4.158
			c0,1.521-1.032,2.41-2.422,2.41c-1.379,0-2.41-0.889-2.41-2.41V2.764c0-0.058,0.037-0.097,0.097-0.097h0.944
			c0.059,0,0.098,0.039,0.098,0.097v4.138c0,0.906,0.53,1.408,1.271,1.408C41.838,8.311,42.37,7.809,42.37,6.902"/>
	</g>
</g>
</svg>
