<?xml version="1.0" encoding="utf-8"?>
<!-- Generator: Adobe Illustrator 16.0.0, SVG Export Plug-In . SVG Version: 6.00 Build 0)  -->
<!DOCTYPE svg PUBLIC "-//W3C//DTD SVG 1.1//EN" "http://www.w3.org/Graphics/SVG/1.1/DTD/svg11.dtd">
<svg version="1.1" id="Layer_1" xmlns="http://www.w3.org/2000/svg" xmlns:xlink="http://www.w3.org/1999/xlink" x="0px" y="0px"
	 width="212.6px" height="340.16px" viewBox="0 0 212.6 340.16" enable-background="new 0 0 212.6 340.16" xml:space="preserve">
<g>
	<path fill="#FFF" d="M195.545,155.365c-7.164,0-13.137,5.167-14.411,11.97h-42.989c-1.276-6.804-7.251-11.97-14.42-11.97
		c-4.941,0-9.308,2.461-11.97,6.213c-2.662-3.752-7.029-6.213-11.968-6.213c-7.167,0-13.141,5.167-14.418,11.97H4.666
		c-1.496,0-2.709,1.214-2.709,2.71c0,1.495,1.213,2.708,2.709,2.708h80.703c1.277,6.803,7.25,11.969,14.418,11.969
		c4.939,0,9.306-2.461,11.968-6.213c2.662,3.752,7.028,6.213,11.97,6.213c7.169,0,13.146-5.166,14.42-11.969h42.989
		c1.274,6.803,7.247,11.969,14.411,11.969c8.094,0,14.678-6.584,14.678-14.677C210.223,161.95,203.639,155.365,195.545,155.365z
		 M99.787,179.307c-4.157,0-7.642-2.771-8.808-6.553l0,0c-0.124-0.398-0.223-0.806-0.301-1.224c-0.08-0.485-0.151-0.976-0.151-1.485
		c0-0.51,0.071-1,0.151-1.488c0.078-0.415,0.177-0.823,0.301-1.221c1.166-3.78,4.651-6.553,8.808-6.553s7.644,2.774,8.808,6.555
		c0.124,0.397,0.224,0.803,0.302,1.217c0.08,0.487,0.15,0.979,0.15,1.489c0,0.509-0.07,1-0.15,1.488
		c-0.078,0.415-0.178,0.822-0.302,1.221l0,0C107.428,176.535,103.943,179.307,99.787,179.307z M123.725,179.307
		c-4.157,0-7.643-2.771-8.81-6.553l0,0c-0.124-0.398-0.224-0.806-0.302-1.221c-0.08-0.488-0.15-0.979-0.15-1.488
		c0-0.51,0.07-1.001,0.15-1.489c0.078-0.414,0.178-0.82,0.302-1.217c1.164-3.781,4.652-6.555,8.81-6.555
		c4.162,0,7.649,2.775,8.816,6.558c0.121,0.396,0.221,0.802,0.299,1.215c0.08,0.487,0.15,0.979,0.15,1.489
		c0,0.509-0.07,1-0.15,1.488c-0.078,0.415-0.178,0.822-0.301,1.221C131.371,176.532,127.884,179.307,123.725,179.307z
		 M195.545,179.307c-4.154,0-7.64-2.771-8.805-6.553l0,0c-0.124-0.398-0.224-0.806-0.301-1.224c-0.08-0.485-0.15-0.976-0.15-1.485
		c0-0.51,0.07-1,0.15-1.488c0.077-0.415,0.177-0.823,0.301-1.222l0,0c1.167-3.78,4.65-6.551,8.805-6.551
		c4.157,0,7.645,2.774,8.81,6.555c0.124,0.397,0.224,0.803,0.301,1.217c0.08,0.487,0.15,0.979,0.15,1.489c0,0.509-0.07,1-0.15,1.488
		c-0.077,0.415-0.177,0.822-0.301,1.221l0,0C203.188,176.535,199.702,179.307,195.545,179.307z"/>
	<path fill="#FFF" d="M195.545,185.514c-4.938,0-9.307,2.461-11.967,6.216c-2.662-3.755-7.03-6.216-11.972-6.216
		c-7.167,0-13.142,5.167-14.416,11.97h-22.254c-1.274-6.803-7.249-11.97-14.416-11.97c-7.166,0-13.142,5.167-14.418,11.97H87.296
		c-1.277-6.803-7.252-11.97-14.421-11.97c-7.167,0-13.14,5.167-14.416,11.97H32.907c-1.496,0-2.71,1.211-2.71,2.708
		c0,1.498,1.214,2.709,2.71,2.709h25.552c1.275,6.805,7.249,11.972,14.416,11.972c7.169,0,13.146-5.167,14.421-11.972h18.807
		c1.276,6.805,7.252,11.972,14.418,11.972c7.167,0,13.142-5.167,14.416-11.972h22.254c1.274,6.805,7.249,11.972,14.416,11.972
		c4.941,0,9.31-2.461,11.972-6.215c2.66,3.754,7.028,6.215,11.967,6.215c8.094,0,14.678-6.584,14.678-14.681
		C210.223,192.099,203.639,185.514,195.545,185.514z M72.875,209.455c-4.156,0-7.64-2.773-8.806-6.555l0,0
		c-0.124-0.398-0.223-0.806-0.301-1.221c-0.08-0.488-0.151-0.979-0.151-1.488c0-0.509,0.071-0.999,0.151-1.487
		c0.078-0.415,0.177-0.822,0.301-1.221l0,0c1.166-3.781,4.65-6.553,8.806-6.553c4.159,0,7.644,2.771,8.811,6.553l0,0
		c0.124,0.398,0.223,0.806,0.301,1.221c0.08,0.488,0.15,0.979,0.15,1.487c0,0.51-0.07,1-0.15,1.488
		c-0.078,0.415-0.177,0.822-0.301,1.221l0,0C80.519,206.682,77.034,209.455,72.875,209.455z M120.521,209.455
		c-4.157,0-7.642-2.773-8.81-6.555l0,0c-0.123-0.398-0.223-0.806-0.301-1.221c-0.08-0.488-0.15-0.979-0.15-1.488
		c0-0.509,0.07-0.999,0.15-1.487c0.078-0.415,0.178-0.822,0.301-1.221l0,0c1.168-3.781,4.652-6.553,8.81-6.553
		s7.643,2.771,8.81,6.553l0,0c0.124,0.398,0.224,0.806,0.301,1.221c0.08,0.488,0.15,0.979,0.15,1.487c0,0.51-0.07,1-0.15,1.488
		c-0.077,0.415-0.177,0.822-0.301,1.221l0,0C128.163,206.682,124.678,209.455,120.521,209.455z M171.606,209.455
		c-4.157,0-7.643-2.773-8.81-6.555l0,0c-0.124-0.398-0.224-0.806-0.301-1.221c-0.08-0.488-0.15-0.979-0.15-1.488
		c0-0.509,0.07-0.999,0.15-1.487c0.077-0.415,0.177-0.822,0.301-1.221l0,0c1.167-3.781,4.652-6.553,8.81-6.553
		s7.643,2.771,8.81,6.553l0,0c0.124,0.398,0.224,0.806,0.301,1.221c0.08,0.488,0.15,0.979,0.15,1.487c0,0.51-0.07,1-0.15,1.488
		c-0.077,0.415-0.177,0.822-0.301,1.221l0,0C179.249,206.682,175.764,209.455,171.606,209.455z M195.545,209.455
		c-4.154,0-7.64-2.773-8.805-6.555l0,0c-0.124-0.398-0.224-0.806-0.301-1.221c-0.08-0.488-0.15-0.979-0.15-1.488
		c0-0.509,0.07-0.999,0.15-1.487c0.077-0.415,0.177-0.822,0.301-1.221l0,0c1.165-3.781,4.65-6.553,8.805-6.553
		c4.157,0,7.643,2.771,8.81,6.553l0,0c0.124,0.398,0.224,0.806,0.301,1.221c0.08,0.488,0.15,0.979,0.15,1.487
		c0,0.51-0.07,1-0.15,1.488c-0.077,0.415-0.177,0.822-0.301,1.221l0,0C203.188,206.682,199.702,209.455,195.545,209.455z"/>
	<path fill="#FFF" d="M56.717,142.604h9.508c1.276,6.804,7.25,11.971,14.418,11.971c7.168,0,13.144-5.167,14.42-11.971h38.188
		c1.274,6.804,7.249,11.971,14.416,11.971c4.94,0,9.307-2.461,11.969-6.213c2.663,3.752,7.028,6.213,11.97,6.213
		s9.31-2.462,11.972-6.215c2.66,3.753,7.028,6.215,11.967,6.215c8.094,0,14.678-6.585,14.678-14.68
		c0-8.094-6.584-14.678-14.678-14.678c-4.938,0-9.307,2.461-11.967,6.214c-2.662-3.753-7.03-6.214-11.972-6.214
		s-9.307,2.459-11.97,6.211c-2.662-3.752-7.028-6.211-11.969-6.211c-7.167,0-13.142,5.166-14.416,11.968H95.064
		c-1.278-6.803-7.252-11.968-14.42-11.968c-7.167,0-13.142,5.166-14.418,11.968h-9.508c-1.497,0-2.71,1.213-2.71,2.709
		S55.221,142.604,56.717,142.604z M195.545,130.637c4.16,0,7.645,2.774,8.812,6.555c0.121,0.397,0.221,0.802,0.298,1.215
		c0.08,0.488,0.15,0.979,0.15,1.489s-0.07,1.001-0.15,1.489c-0.077,0.414-0.177,0.82-0.301,1.217
		c-1.165,3.781-4.652,6.555-8.81,6.555c-4.154,0-7.638-2.772-8.805-6.551l0,0c-0.124-0.398-0.224-0.807-0.301-1.222
		c-0.08-0.488-0.15-0.978-0.15-1.488s0.07-1.001,0.15-1.488c0.077-0.415,0.177-0.823,0.301-1.219
		C187.905,133.408,191.391,130.637,195.545,130.637z M171.606,130.637c4.159,0,7.645,2.774,8.812,6.555
		c0.122,0.397,0.222,0.802,0.299,1.215c0.08,0.488,0.15,0.979,0.15,1.489s-0.07,1.001-0.15,1.489
		c-0.077,0.414-0.177,0.82-0.301,1.217c-1.165,3.781-4.652,6.555-8.81,6.555s-7.645-2.774-8.81-6.555
		c-0.124-0.397-0.224-0.803-0.301-1.217c-0.08-0.488-0.15-0.979-0.15-1.489s0.07-1.001,0.15-1.489
		c0.077-0.413,0.177-0.818,0.298-1.215C163.962,133.411,167.446,130.637,171.606,130.637z M147.668,130.637
		c4.159,0,7.645,2.774,8.812,6.555c0.121,0.397,0.221,0.802,0.299,1.215c0.08,0.488,0.15,0.979,0.15,1.489s-0.07,1.001-0.15,1.489
		c-0.078,0.414-0.178,0.82-0.301,1.217c-1.165,3.781-4.652,6.555-8.81,6.555s-7.645-2.774-8.81-6.555
		c-0.124-0.397-0.224-0.803-0.301-1.217c-0.08-0.488-0.15-0.979-0.15-1.489s0.07-1.001,0.15-1.489
		c0.077-0.413,0.177-0.818,0.298-1.215C140.023,133.411,143.508,130.637,147.668,130.637z M80.644,130.637
		c4.161,0,7.647,2.774,8.812,6.555c0.123,0.397,0.222,0.805,0.3,1.218c0.08,0.487,0.15,0.977,0.15,1.485
		c0,0.51-0.07,1.001-0.15,1.489c-0.078,0.414-0.177,0.82-0.3,1.217c-1.166,3.781-4.652,6.555-8.812,6.555
		c-4.157,0-7.642-2.772-8.808-6.552c-0.124-0.398-0.224-0.806-0.301-1.221c-0.08-0.488-0.15-0.978-0.15-1.488
		c0-0.508,0.07-0.999,0.15-1.485c0.078-0.414,0.177-0.821,0.3-1.221C73,133.409,76.485,130.637,80.644,130.637z"/>
</g>
</svg>
