<?xml version="1.0" encoding="utf-8"?>
<!-- Generator: Adobe Illustrator 16.0.0, SVG Export Plug-In . SVG Version: 6.00 Build 0)  -->
<!DOCTYPE svg PUBLIC "-//W3C//DTD SVG 1.1//EN" "http://www.w3.org/Graphics/SVG/1.1/DTD/svg11.dtd">
<svg version="1.1" id="Layer_1" xmlns="http://www.w3.org/2000/svg" xmlns:xlink="http://www.w3.org/1999/xlink" x="0px" y="0px"
	 width="17.973px" height="15.75px" viewBox="0 0 17.973 15.75" enable-background="new 0 0 17.973 15.75" xml:space="preserve">
<g>
	<g>
		<path fill="#FFFFFF" d="M15.538,4.046c-0.523,0-0.962,0.378-1.056,0.877h-3.148c-0.094-0.499-0.529-0.877-1.057-0.877
			c-0.362,0-0.681,0.181-0.877,0.455C9.205,4.227,8.886,4.046,8.525,4.046c-0.525,0-0.962,0.378-1.056,0.877H1.558
			c-0.11,0-0.199,0.089-0.199,0.198S1.448,5.32,1.558,5.32H7.47c0.093,0.498,0.529,0.875,1.056,0.875
			c0.361,0,0.681-0.178,0.876-0.455c0.196,0.275,0.515,0.455,0.877,0.455c0.525,0,0.963-0.377,1.057-0.875h3.148
			c0.094,0.498,0.531,0.875,1.056,0.875c0.595,0,1.075-0.481,1.075-1.074C16.615,4.527,16.132,4.046,15.538,4.046z M8.525,5.799
			c-0.305,0-0.559-0.201-0.646-0.479l0,0C7.869,5.29,7.862,5.26,7.858,5.23C7.853,5.195,7.847,5.159,7.847,5.121
			c0-0.037,0.006-0.073,0.011-0.109c0.005-0.029,0.013-0.06,0.021-0.089C7.966,4.646,8.22,4.444,8.525,4.444
			c0.304,0,0.56,0.202,0.645,0.479c0.011,0.029,0.019,0.06,0.022,0.089c0.006,0.036,0.011,0.072,0.011,0.109
			c0,0.038-0.004,0.074-0.011,0.109C9.186,5.26,9.179,5.29,9.169,5.32l0,0C9.083,5.598,8.828,5.799,8.525,5.799z M10.279,5.799
			c-0.305,0-0.56-0.201-0.645-0.479l0,0C9.623,5.29,9.615,5.26,9.612,5.23C9.606,5.195,9.601,5.159,9.601,5.121
			c0-0.037,0.004-0.073,0.011-0.109c0.006-0.029,0.013-0.06,0.022-0.089c0.085-0.276,0.34-0.479,0.645-0.479
			s0.562,0.202,0.646,0.479c0.008,0.03,0.016,0.06,0.021,0.089c0.006,0.036,0.011,0.072,0.011,0.109
			c0,0.038-0.005,0.074-0.011,0.109c-0.005,0.029-0.013,0.06-0.021,0.09C10.837,5.596,10.583,5.799,10.279,5.799z M15.538,5.799
			c-0.304,0-0.559-0.201-0.645-0.479l0,0c-0.009-0.03-0.019-0.061-0.021-0.09c-0.006-0.035-0.012-0.071-0.012-0.109
			c0-0.037,0.005-0.073,0.012-0.109c0.005-0.029,0.014-0.06,0.021-0.089l0,0c0.086-0.276,0.341-0.479,0.645-0.479
			c0.306,0,0.562,0.202,0.646,0.479c0.009,0.029,0.017,0.06,0.021,0.089c0.009,0.036,0.014,0.072,0.014,0.109
			c0,0.038-0.005,0.074-0.014,0.109c-0.004,0.029-0.012,0.06-0.021,0.09l0,0C16.099,5.598,15.844,5.799,15.538,5.799z"/>
		<path fill="#FFFFFF" d="M15.538,6.254c-0.359,0-0.682,0.18-0.876,0.455c-0.194-0.273-0.515-0.455-0.877-0.455
			c-0.523,0-0.962,0.378-1.056,0.876h-1.631c-0.093-0.498-0.53-0.876-1.058-0.876c-0.523,0-0.962,0.378-1.056,0.876H7.608
			C7.514,6.632,7.076,6.254,6.552,6.254c-0.525,0-0.963,0.378-1.059,0.876H3.621c-0.107,0-0.196,0.089-0.196,0.199
			s0.089,0.198,0.196,0.198h1.872c0.095,0.5,0.531,0.877,1.059,0.877c0.523,0,0.962-0.379,1.056-0.877h1.378
			c0.094,0.5,0.531,0.877,1.056,0.877c0.525,0,0.964-0.379,1.058-0.877h1.631c0.093,0.5,0.531,0.877,1.056,0.877
			c0.362,0,0.683-0.18,0.877-0.455c0.194,0.273,0.517,0.455,0.876,0.455c0.595,0,1.075-0.481,1.075-1.075
			C16.615,6.736,16.132,6.254,15.538,6.254z M6.555,8.008c-0.307,0-0.562-0.203-0.646-0.479l0,0C5.9,7.5,5.892,7.469,5.888,7.439
			c-0.009-0.036-0.013-0.07-0.013-0.108s0.004-0.073,0.013-0.108c0.005-0.029,0.013-0.061,0.021-0.091l0,0
			c0.085-0.274,0.34-0.479,0.646-0.479c0.304,0,0.559,0.202,0.645,0.479l0,0c0.008,0.03,0.018,0.062,0.021,0.091
			c0.006,0.035,0.012,0.07,0.012,0.108S7.228,7.403,7.221,7.439C7.215,7.469,7.206,7.5,7.199,7.528l0,0
			C7.114,7.805,6.859,8.008,6.555,8.008z M10.043,8.008c-0.304,0-0.56-0.203-0.645-0.479l0,0C9.39,7.5,9.382,7.469,9.376,7.439
			c-0.005-0.036-0.011-0.07-0.011-0.108S9.37,7.258,9.376,7.223c0.008-0.029,0.015-0.061,0.022-0.091l0,0
			c0.085-0.274,0.341-0.479,0.645-0.479c0.307,0,0.562,0.202,0.646,0.479l0,0c0.009,0.03,0.016,0.062,0.021,0.091
			c0.008,0.035,0.013,0.07,0.013,0.108s-0.005,0.072-0.013,0.108C10.704,7.469,10.698,7.5,10.69,7.528l0,0
			C10.604,7.805,10.349,8.008,10.043,8.008z M13.785,8.008c-0.305,0-0.56-0.203-0.646-0.479l0,0
			c-0.008-0.028-0.018-0.06-0.021-0.089c-0.006-0.036-0.011-0.07-0.011-0.108s0.005-0.073,0.011-0.108
			c0.005-0.029,0.015-0.061,0.021-0.091l0,0c0.086-0.274,0.341-0.479,0.646-0.479c0.307,0,0.561,0.202,0.646,0.479l0,0
			c0.009,0.03,0.017,0.062,0.021,0.091c0.005,0.035,0.013,0.07,0.013,0.108s-0.008,0.072-0.013,0.108
			C14.447,7.469,14.44,7.5,14.432,7.528l0,0C14.345,7.805,14.091,8.008,13.785,8.008z M15.538,8.008
			c-0.304,0-0.559-0.203-0.645-0.479l0,0c-0.009-0.028-0.019-0.06-0.021-0.089c-0.006-0.036-0.012-0.07-0.012-0.108
			s0.005-0.073,0.012-0.108c0.005-0.029,0.014-0.061,0.021-0.091l0,0c0.086-0.274,0.341-0.479,0.645-0.479
			c0.306,0,0.562,0.202,0.646,0.479l0,0c0.009,0.03,0.017,0.062,0.021,0.091c0.009,0.035,0.014,0.07,0.014,0.108
			s-0.005,0.072-0.014,0.108c-0.004,0.029-0.012,0.061-0.021,0.089l0,0C16.099,7.805,15.844,8.008,15.538,8.008z"/>
		<path fill="#FFFFFF" d="M5.369,3.111h0.697c0.093,0.498,0.531,0.875,1.056,0.875c0.525,0,0.963-0.377,1.059-0.875h2.797
			c0.093,0.498,0.53,0.875,1.056,0.875c0.361,0,0.683-0.182,0.876-0.455c0.196,0.273,0.517,0.455,0.877,0.455
			c0.362,0,0.683-0.182,0.877-0.455c0.194,0.273,0.517,0.455,0.876,0.455c0.595,0,1.075-0.481,1.075-1.074
			c0-0.594-0.48-1.075-1.075-1.075c-0.359,0-0.682,0.181-0.876,0.455c-0.194-0.274-0.515-0.455-0.877-0.455
			c-0.36,0-0.681,0.181-0.877,0.455c-0.193-0.274-0.515-0.455-0.876-0.455c-0.523,0-0.962,0.378-1.056,0.876H8.181
			C8.086,2.214,7.649,1.837,7.122,1.837c-0.523,0-0.962,0.378-1.056,0.876H5.369c-0.107,0-0.199,0.09-0.199,0.199
			C5.17,3.023,5.261,3.111,5.369,3.111z M15.538,2.234c0.307,0,0.562,0.205,0.646,0.479c0.009,0.028,0.017,0.06,0.021,0.089
			c0.009,0.035,0.014,0.071,0.014,0.108c0,0.038-0.005,0.071-0.014,0.108c-0.004,0.031-0.012,0.061-0.021,0.091
			c-0.086,0.274-0.341,0.479-0.646,0.479c-0.305,0-0.559-0.202-0.645-0.479l0,0c-0.009-0.03-0.019-0.06-0.021-0.091
			c-0.006-0.037-0.012-0.07-0.012-0.108c0-0.037,0.005-0.073,0.012-0.108c0.005-0.029,0.014-0.061,0.021-0.09
			C14.98,2.439,15.235,2.234,15.538,2.234z M13.785,2.234c0.307,0,0.561,0.205,0.646,0.479c0.008,0.028,0.016,0.06,0.021,0.089
			c0.005,0.035,0.013,0.071,0.013,0.108c0,0.038-0.008,0.071-0.013,0.108C14.447,3.051,14.44,3.08,14.432,3.11
			c-0.086,0.274-0.34,0.479-0.646,0.479c-0.305,0-0.56-0.202-0.646-0.479c-0.008-0.03-0.018-0.06-0.021-0.091
			c-0.006-0.037-0.011-0.07-0.011-0.108c0-0.037,0.005-0.073,0.011-0.108c0.005-0.029,0.015-0.061,0.021-0.089
			C13.226,2.439,13.481,2.234,13.785,2.234z M12.032,2.234c0.305,0,0.562,0.205,0.646,0.479c0.009,0.028,0.017,0.06,0.021,0.089
			c0.006,0.035,0.011,0.071,0.011,0.108c0,0.038-0.005,0.071-0.011,0.108c-0.005,0.031-0.013,0.061-0.021,0.091
			c-0.085,0.274-0.342,0.479-0.646,0.479c-0.304,0-0.56-0.202-0.646-0.479c-0.011-0.03-0.019-0.06-0.022-0.091
			c-0.006-0.037-0.011-0.07-0.011-0.108c0-0.037,0.005-0.073,0.011-0.108c0.005-0.029,0.013-0.061,0.022-0.089
			C11.473,2.439,11.727,2.234,12.032,2.234z M7.122,2.234c0.307,0,0.562,0.205,0.646,0.479c0.008,0.028,0.016,0.06,0.021,0.089
			c0.005,0.035,0.013,0.071,0.013,0.108c0,0.038-0.008,0.071-0.013,0.108C7.783,3.051,7.777,3.08,7.769,3.11
			C7.683,3.385,7.428,3.589,7.122,3.589c-0.304,0-0.56-0.202-0.645-0.479C6.469,3.08,6.459,3.051,6.455,3.02
			C6.45,2.982,6.445,2.949,6.445,2.911c0-0.037,0.006-0.073,0.011-0.108C6.46,2.773,6.47,2.742,6.478,2.714
			C6.563,2.439,6.819,2.234,7.122,2.234z"/>
	</g>
	<g>
		<path fill="#FFFFFF" d="M2.016,10.217c0-0.033,0.021-0.055,0.054-0.055h0.532c0.033,0,0.055,0.021,0.055,0.055v1.737l1.396-1.748
			c0.024-0.033,0.048-0.044,0.086-0.044h0.619c0.031,0,0.049,0.038,0.021,0.07l-1.146,1.379l1.274,2.177
			c0.022,0.039,0.005,0.065-0.038,0.065H4.267c-0.044,0-0.062-0.01-0.083-0.043l-0.966-1.705L2.654,12.79v1.011
			c0,0.032-0.021,0.055-0.055,0.055H2.067c-0.033,0-0.054-0.021-0.054-0.055L2.016,10.217L2.016,10.217z"/>
		<path fill="#FFFFFF" d="M5.453,10.217c0-0.033,0.021-0.055,0.056-0.055h0.53c0.033,0,0.057,0.021,0.057,0.055v1.455
			c0,0.021,0.01,0.032,0.03,0.032h1.407c0.021,0,0.033-0.011,0.033-0.032v-1.455c0-0.033,0.021-0.055,0.054-0.055h0.532
			c0.033,0,0.055,0.021,0.055,0.055v3.584c0,0.032-0.021,0.055-0.055,0.055H7.62c-0.03,0-0.054-0.021-0.054-0.055v-1.488
			c0-0.021-0.011-0.032-0.033-0.032H6.126c-0.021,0-0.03,0.011-0.03,0.032v1.488c0,0.032-0.022,0.055-0.057,0.055h-0.53
			c-0.033,0-0.056-0.021-0.056-0.055V10.217z"/>
		<path fill="#FFFFFF" d="M9.02,10.217c0-0.033,0.021-0.055,0.054-0.055h0.533c0.033,0,0.055,0.021,0.055,0.055v3.584
			c0,0.032-0.021,0.055-0.055,0.055H9.073c-0.032,0-0.054-0.021-0.054-0.055V10.217z"/>
		<path fill="#FFFFFF" d="M10.53,13.855c-0.032,0-0.054-0.022-0.054-0.055v-3.586c0-0.031,0.021-0.054,0.054-0.054h1.385
			c0.719,0,1.219,0.461,1.219,1.146c0,0.688-0.5,1.15-1.219,1.15h-0.766c-0.021,0-0.033,0.012-0.033,0.032v1.31
			c0,0.032-0.021,0.055-0.054,0.055H10.53V13.855z M12.49,11.309c0-0.338-0.231-0.569-0.614-0.569h-0.728
			c-0.021,0-0.033,0.011-0.033,0.032v1.074c0,0.021,0.011,0.032,0.033,0.032h0.728C12.257,11.878,12.49,11.65,12.49,11.309"/>
		<path fill="#FFFFFF" d="M15.78,12.546v-2.33c0-0.032,0.022-0.055,0.055-0.055h0.532c0.033,0,0.057,0.022,0.057,0.055v2.341
			c0,0.856-0.582,1.356-1.363,1.356c-0.777,0-1.357-0.5-1.357-1.356v-2.341c0-0.032,0.021-0.055,0.056-0.055h0.53
			c0.033,0,0.057,0.022,0.057,0.055v2.33c0,0.511,0.299,0.792,0.717,0.792C15.482,13.339,15.78,13.057,15.78,12.546"/>
	</g>
</g>
</svg>
