<svg id="Layer_1" data-name="Layer 1" xmlns="http://www.w3.org/2000/svg" viewBox="0 0 222 174"><defs><style>.cls-1{fill:#fff;}</style></defs><title>Globant_Short-LightBG-White</title><path class="cls-1" d="M72.39,129.83c-26.3,0-42.47-22.08-42.46-46,0-25.29,14.47-45.55,42.21-45.54,20.39,0,36.13,12.15,37.42,29.31H91.49c-.9-8-9.54-14.45-19.35-14.46-14.33,0-23.88,11.09-23.89,31.48,0,14.07,7.09,30.08,23.74,30.08,15.54,0,20.91-7.63,20.91-19.61h-19V80.79h35.74V95.19C109.67,115.57,101,129.84,72.39,129.83Z"/><path class="cls-1" d="M131.24,35.53A3.92,3.92,0,0,0,125.51,40L133,51.17a64.82,64.82,0,0,1,0,72.11l-7.48,11.16a3.92,3.92,0,0,0,5.72,4.48l62.71-47.77a4.91,4.91,0,0,0,0-7.82Z"/></svg>