<?xml version="1.0" encoding="utf-8"?>
<!-- Generator: Adobe Illustrator 16.0.0, SVG Export Plug-In . SVG Version: 6.00 Build 0)  -->
<!DOCTYPE svg PUBLIC "-//W3C//DTD SVG 1.1//EN" "http://www.w3.org/Graphics/SVG/1.1/DTD/svg11.dtd">
<svg version="1.1" id="pug" xmlns="http://www.w3.org/2000/svg" xmlns:xlink="http://www.w3.org/1999/xlink" x="0px" y="0px"
	 width="212.6px" height="340.16px" viewBox="0 0 212.6 340.16" enable-background="new 0 0 212.6 340.16" xml:space="preserve">
<g>
	<path fill="#FFFFFF" d="M43.985,201.137c4.484,9.334,10.846,17.219,18.935,23.602c19.565,15.44,41.599,19.258,65.5,13.218
		c10.139-2.563,19.15-7.39,26.784-14.638c0,0,0,0-0.001,0c4.478-3.816,8.056-8.402,11.035-13.425
		c9.728-16.401,11.846-34.162,9.202-52.745c-0.199-1.395-0.92-1.48-2.067-1.479c-21.25,0.029-42.499,0.042-63.749-0.019
		c-1.696-0.005-1.96,0.574-1.945,2.079c0.067,7.808,0.029,15.619,0.032,23.426c0,2.524,0.001,2.524,2.442,2.524
		c11.52,0.003,23.042,0.05,34.562-0.047c1.933-0.018,2.077,0.593,1.609,2.154c-0.681,2.27-1.399,4.513-2.424,6.654
		c-2.569,5.375-6.479,9.605-11.166,13.183c-5.907,3.611-12.232,5.963-19.173,6.684c-14.939,1.549-27.407-3.243-37.466-14.351
		c-3.956-4.367-6.616-9.513-8.759-14.952c-2.791-9.337-2.947-18.659,0.177-27.961c2.539-6.964,6.414-13.039,11.866-18.109
		c15.876-14.767,40.268-14.922,55.208-1.232c1.08,0.991,1.493,0.248,2.1-0.359c5.932-5.927,11.827-11.89,17.816-17.756
		c1.166-1.142,0.901-1.682-0.171-2.605c-16.972-14.613-36.611-19.788-58.556-16.283c-15.679,2.505-28.923,9.848-39.862,21.313
		c-4.834,5.067-8.957,10.666-11.874,17.083l0.001,0c-0.365,0.67-0.77,1.321-1.089,2.011c-5.812,12.574-7.761,25.757-5.987,39.459
		C37.989,186.477,40.182,194.069,43.985,201.137L43.985,201.137z"/>
</g>
</svg>
