<?xml version="1.0" encoding="utf-8"?>
<!-- Generator: Adobe Illustrator 16.0.0, SVG Export Plug-In . SVG Version: 6.00 Build 0)  -->
<!DOCTYPE svg PUBLIC "-//W3C//DTD SVG 1.1//EN" "http://www.w3.org/Graphics/SVG/1.1/DTD/svg11.dtd">
<svg version="1.1" id="gulp" xmlns="http://www.w3.org/2000/svg" xmlns:xlink="http://www.w3.org/1999/xlink" x="0px" y="0px"
	 width="212.6px" height="340.16px" viewBox="0 0 212.6 340.16" enable-background="new 0 0 212.6 340.16" xml:space="preserve">
<g>
	<path fill="#FFFFFF" d="M112.252,265.936c-1.479,0-2.866,0-4.34,0c0-0.846,0-1.526,0-2.31c2.427,0,4.798,0,7.17,0
		c0.953,3.363-1.47,7.748-5.06,9.154c-4.381,1.718-9.578-0.317-11.738-4.591c-2.249-4.46-0.674-9.884,3.645-12.545
		c4.07-2.509,9.524-1.502,12.417,2.373c-0.525,0.504-1.062,1.011-1.718,1.636c-1.705-1.826-3.614-3.179-6.241-2.905
		c-1.635,0.17-3.076,0.737-4.285,1.896c-2.293,2.201-2.87,5.891-1.314,8.681c1.448,2.604,4.649,4.1,7.395,3.456
		C110.431,270.252,112.198,268.262,112.252,265.936z"/>
	<path fill="#FFFFFF" d="M66.628,265.557c0,2.407,0,4.81,0,7.333c-0.958,0-1.724,0-2.605,0c0-5.991,0-11.975,0-18.113
		c2.463-0.078,4.936-0.453,7.29,0.597c1.785,0.795,2.711,2.252,2.845,4.189c0.145,2.09-0.622,3.763-2.41,4.906
		c-0.463,0.295-0.976,0.516-1.611,0.846c1.806,2.515,3.568,4.966,5.37,7.468c-2.532,0.558-2.859,0.435-4.117-1.381
		c-1.177-1.698-2.359-3.39-3.55-5.073c-0.23-0.327-0.518-0.611-0.78-0.918C66.917,265.455,66.772,265.505,66.628,265.557z
		 M67.864,257.118c-0.951-0.181-1.404,0.226-1.323,1.369c0.086,1.21-0.003,2.428,0.037,3.645c0.01,0.329,0.115,0.812,0.344,0.958
		c1.203,0.754,4.171-0.597,4.538-2.014C72.08,258.674,70.732,257.133,67.864,257.118z"/>
	<path fill="#FFFFFF" d="M119.725,254.774c0.947,0,1.722,0,2.657,0c0,2.938-0.004,5.789,0,8.638c0,1.033-0.023,2.067,0.011,3.1
		c0.091,2.743,1.63,4.377,4.093,4.377c2.603,0,4.151-1.597,4.181-4.415c0.036-3.329,0.013-6.665,0.016-9.997c0-0.51,0-1.023,0-1.709
		c0.61-0.03,1.146-0.052,1.685-0.092c0.729-0.052,0.992,0.291,0.988,1.001c-0.026,3.803,0.082,7.609-0.06,11.406
		c-0.14,3.658-2.969,6.204-6.66,6.279c-3.677,0.071-6.645-2.419-6.858-6.225C119.551,263.077,119.725,258.991,119.725,254.774z"/>
	<path fill="#FFFFFF" d="M45.065,254.74c0.883,0,1.625,0,2.588,0c0,0.556,0,1.052,0,1.548c0.001,3.474-0.046,6.951,0.02,10.425
		c0.057,2.936,2.101,4.59,4.95,4.138c1.992-0.319,3.253-1.917,3.301-4.443c0.071-3.38,0.099-6.764,0-10.142
		c-0.038-1.369,0.449-1.726,1.693-1.608c0.703,0.063,1.007,0.284,1.001,1.012c-0.022,3.71,0.096,7.426-0.046,11.13
		c-0.129,3.291-2.291,5.792-5.176,6.4c-3.195,0.674-6.218-0.645-7.653-3.398c-0.337-0.652-0.64-1.413-0.651-2.129
		C45.034,263.408,45.065,259.148,45.065,254.74z"/>
	<path fill="#FFFFFF" d="M153.526,272.799c-2.645,0.485-2.617,0.435-3.595-1.688c-1.422-3.091-0.4-2.574-3.898-2.62
		c-1.41-0.021-2.825-0.082-4.218,0.046c-0.527,0.05-1.109,0.496-1.474,0.926c-0.382,0.443-0.538,1.085-0.789,1.639
		c-0.981,2.125-0.981,2.125-3.606,1.748c2.959-6.363,5.889-12.662,8.95-19.244C147.83,260.136,150.645,266.395,153.526,272.799z
		 M141.866,265.978c2.061,0,3.812,0,5.825,0c-0.948-2.151-1.822-4.135-2.86-6.485C143.748,261.859,142.865,263.794,141.866,265.978z
		"/>
	<path fill="#FFFFFF" d="M92.799,261.586c0,1.829,0.058,3.66-0.017,5.494c-0.145,3.646-3.068,6.327-6.775,6.291
		c-3.681-0.035-6.568-2.664-6.667-6.253c-0.1-3.756-0.007-7.513-0.051-11.271c-0.012-0.961,0.388-1.178,1.262-1.185
		c0.92-0.008,1.364,0.212,1.346,1.248c-0.051,3.098-0.03,6.197-0.013,9.3c0.005,0.791,0.037,1.604,0.178,2.38
		c0.401,2.239,1.875,3.374,4.188,3.296c2.141-0.07,3.715-1.375,3.812-3.546c0.164-3.749,0.143-7.508,0.15-11.264
		c0.003-0.971,0.215-1.46,1.337-1.429c0.962,0.032,1.33,0.308,1.296,1.305c-0.064,1.873-0.018,3.755-0.018,5.634
		C92.819,261.586,92.809,261.586,92.799,261.586z"/>
	<path fill="#FFFFFF" d="M167.543,254.868c-1.383,2.435-2.582,4.879-4.093,7.109c-1.387,2.053-1.991,4.17-1.766,6.605
		c0.093,0.976-0.039,1.972,0.022,2.952c0.064,1.038-0.218,1.502-1.391,1.508c-1.216,0.006-1.336-0.629-1.202-1.501
		c0.711-4.683-0.836-8.707-3.484-12.466c-0.906-1.288-1.571-2.739-2.367-4.145c2.34-0.606,2.729-0.451,3.804,1.421
		c1.05,1.825,2.096,3.646,3.306,5.741c1.145-1.954,2.323-3.632,3.151-5.467C164.335,254.838,165.504,254.316,167.543,254.868z"/>
</g>
<g>
	<path fill="#FFFFFF" d="M55.164,211.246c0-1.674,0-3.347,0-5.021c0-1.783,0-3.568,0-5.355c0.001-2.248,0.067-2.3,2.546-1.902
		c0,6.239,0,12.498,0,19.108c-4.475-4.655-8.768-9.123-13.277-13.815c-0.09,0.646-0.175,0.981-0.178,1.319
		c-0.011,3.146-0.004,6.291-0.009,9.441c-0.002,2.38-0.058,2.421-2.562,1.958c0-6.292,0-12.596,0-19.218
		c4.477,4.666,8.774,9.141,13.065,13.619C54.889,211.336,55.027,211.292,55.164,211.246z"/>
	<path fill="#FFFFFF" d="M139.581,217.077c-0.046-0.401-0.113-0.719-0.113-1.036c-0.006-5.299,0.021-10.597-0.027-15.894
		c-0.009-1.074,0.359-1.413,1.379-1.352c1.868,0.105,3.78-0.073,5.605,0.254c4.613,0.832,7.427,4.593,7.215,9.31
		c-0.216,4.741-3.446,8.273-8.141,8.69C143.563,217.221,141.595,217.077,139.581,217.077z M142.09,201.434
		c0,4.142-0.013,8.313,0.027,12.482c0,0.264,0.335,0.688,0.593,0.759c3.14,0.88,7.054-1.36,7.972-4.525
		C152.283,204.638,148.238,200.445,142.09,201.434z"/>
	<path fill="#FFFFFF" d="M175.579,217.067c-0.037-0.46-0.095-0.824-0.095-1.19c-0.007-5.213,0.025-10.429-0.024-15.643
		c-0.013-1.105,0.325-1.516,1.439-1.441c1.869,0.123,3.788-0.067,5.614,0.267c4.599,0.841,7.33,4.592,7.093,9.406
		c-0.228,4.621-3.396,8.127-7.962,8.571C179.698,217.229,177.713,217.067,175.579,217.067z M178.021,201.213
		c0,3.771,0.002,7.28,0,10.79c0,3.015,0.049,3.059,3.078,2.637c3.503-0.49,5.811-2.986,5.924-6.415
		c0.116-3.5-1.866-6.108-5.278-6.77C180.611,201.235,179.422,201.295,178.021,201.213z"/>
	<path fill="#FFFFFF" d="M108.002,209.445c1.851,2.564,3.599,4.989,5.374,7.445c-2.262,0.625-2.816,0.438-4.062-1.323
		c-1.166-1.648-2.318-3.305-3.492-4.947c-0.279-0.394-0.623-0.742-0.937-1.113c-0.129,0.038-0.259,0.074-0.388,0.112
		c0,2.441,0,4.887,0,7.262c-2.444,0.615-2.643,0.478-2.643-1.643c-0.007-4.977,0.03-9.953-0.025-14.932
		c-0.012-1.171,0.366-1.617,1.529-1.508c1.582,0.145,3.208,0.047,4.747,0.368c2.389,0.504,3.711,2.104,3.878,4.231
		c0.222,2.789-0.8,4.563-3.223,5.63C108.549,209.118,108.357,209.247,108.002,209.445z M105.343,201.267
		c-0.113,0.1-0.846,0.445-0.891,0.86c-0.147,1.439-0.074,2.906-0.031,4.358c0.008,0.271,0.319,0.779,0.417,0.76
		c1.256-0.229,2.632-0.295,3.71-0.887c1.037-0.566,1.169-1.857,0.824-3.038C108.975,201.945,107.935,201.344,105.343,201.267z"/>
	<path fill="#FFFFFF" d="M33.985,198.819c0.685,0,1.227-0.115,1.684,0.035c0.374,0.122,0.924,0.556,0.924,0.851
		c0.009,4.035,0.161,8.086-0.182,12.095c-0.324,3.761-3.306,5.852-7.269,5.646c-3.26-0.167-5.97-2.817-6.09-6.238
		c-0.133-3.798-0.033-7.604-0.068-11.407c-0.008-0.743,0.3-1.017,0.997-0.993c0.504,0.016,1.009,0.002,1.698,0.002
		c0,1.896,0,3.619,0,5.34c0.001,2.162-0.018,4.322,0.007,6.48c0.037,2.686,1.429,4.294,3.751,4.396
		c2.67,0.117,4.336-1.28,4.483-4.11c0.158-3.043,0.058-6.103,0.067-9.153C33.988,200.875,33.985,199.987,33.985,198.819z"/>
	<path fill="#FFFFFF" d="M172.424,216.96c-2.574,0.482-2.888,0.482-3.532-1.64c-0.686-2.253-1.939-3.053-4.189-2.706
		c-0.915,0.143-1.888,0.132-2.812,0c-1.716-0.246-2.779,0.356-3.207,2.053c-0.056,0.229-0.166,0.441-0.265,0.654
		c-0.902,2.028-1.082,2.114-3.572,1.632c2.95-6.353,5.887-12.666,8.936-19.225C166.732,204.293,169.567,210.604,172.424,216.96z
		 M166.593,210.145c-0.963-2.211-1.829-4.191-2.855-6.555c-1.084,2.375-1.995,4.377-2.986,6.555
		C162.796,210.145,164.552,210.145,166.593,210.145z"/>
	<path fill="#FFFFFF" d="M97.5,198.804c0,0.944,0,1.625,0,2.46c-2.454,0-4.828,0-7.375,0c0,1.398-0.076,2.662,0.058,3.898
		c0.033,0.291,0.765,0.706,1.192,0.725c1.91,0.078,3.829,0.034,5.854,0.034c0,0.816,0,1.493,0,2.384c-2.292,0-4.608,0-7.088,0
		c0,2.026-0.051,3.847,0.054,5.658c0.017,0.275,0.758,0.71,1.176,0.724c2.005,0.076,4.015,0.035,6.118,0.035
		c0,0.812,0,1.493,0,2.307c-3.228,0-6.478,0-9.876,0c-0.029-0.43-0.091-0.881-0.092-1.331c-0.003-5.115,0.039-10.228-0.029-15.346
		c-0.018-1.269,0.396-1.605,1.605-1.571C91.853,198.856,94.613,198.804,97.5,198.804z"/>
	<path fill="#FFFFFF" d="M118.647,211.681c0.937,2.782,1.715,3.45,3.694,3.344c1.397-0.077,2.278-0.85,2.679-2.118
		c0.412-1.31,0.237-2.584-0.994-3.382c-0.932-0.605-1.988-1.021-3.007-1.493c-1.688-0.777-3.324-1.612-3.878-3.594
		c-0.559-1.998,0.15-3.81,1.905-5.027c1.874-1.3,4.588-1.348,6.376-0.114c0.731,0.505,1.455,1.018,2.184,1.528
		c-0.126,0.193-0.252,0.394-0.375,0.587c-0.616,0.378-1.233,0.753-1.926,1.176c-1.049-1.446-2.372-2.262-4.017-1.46
		c-0.693,0.343-1.499,1.217-1.555,1.906c-0.058,0.672,0.618,1.656,1.257,2.074c1.16,0.763,2.563,1.147,3.807,1.798
		c2.372,1.245,3.247,2.991,2.971,5.679c-0.222,2.163-1.899,4.207-4.085,4.692c-2.376,0.529-4.653,0.266-6.221-1.863
		c-0.631-0.856-0.951-1.944-1.506-3.133C117.071,212.03,117.825,211.861,118.647,211.681z"/>
	<path fill="#FFFFFF" d="M76.376,218.44c-2.73-6.71-5.312-13.035-7.895-19.384c2.398-0.604,2.654-0.492,3.486,1.571
		c1.433,3.561,2.853,7.127,4.415,11.032c0.35-0.736,0.577-1.167,0.759-1.611c1.251-3.088,2.495-6.179,3.73-9.273
		c0.857-2.15,0.924-2.194,3.604-1.78C81.814,205.381,79.18,211.705,76.376,218.44z"/>
	<path fill="#FFFFFF" d="M65.382,198.98c0,6.028,0,11.971,0,18.049c-0.826,0-1.627,0-2.605,0c0-0.541,0-1.042,0-1.545
		c-0.002-4.83-0.004-9.661-0.009-14.492C62.768,198.607,62.816,198.567,65.382,198.98z"/>
	<path fill="#FFFFFF" d="M131.82,217.02c0-1.224,0-2.385,0-3.546c0-4.455,0.027-8.913-0.016-13.367
		c-0.013-0.966,0.267-1.329,1.262-1.329c0.991,0.003,1.414,0.251,1.404,1.345c-0.048,4.973-0.02,9.944-0.014,14.913
		C134.456,217.342,134.45,217.342,131.82,217.02z"/>
</g>
<g>
	<path fill="#FFFFFF" d="M4.39,244.888c0-5.809-0.011-11.533,0.034-17.259c0.005-0.29,0.507-0.828,0.78-0.828
		c2.061-0.008,4.158-0.139,6.174,0.2c4.555,0.766,7.301,4.392,7.219,9.165c-0.08,4.479-3.043,8.074-7.482,8.673
		C8.966,245.127,6.746,244.888,4.39,244.888z M7.164,242.547c3.036,0.332,5.778-0.065,7.578-2.693
		c1.681-2.454,1.725-5.14,0.154-7.691c-1.784-2.896-4.656-3.107-7.732-2.921C7.164,233.71,7.164,238.091,7.164,242.547z"/>
	<path fill="#FFFFFF" d="M149.957,235.184c1.63,0.994,2.837,2.227,2.935,4.22c0.14,2.922-1.561,5.218-4.448,5.536
		c-2.035,0.225-4.113,0.042-6.296,0.042c-0.037-0.44-0.098-0.848-0.098-1.256c-0.009-5.121,0.027-10.24-0.031-15.361
		c-0.012-1.194,0.275-1.759,1.565-1.628c0.979,0.102,1.974,0.009,2.956,0.087c4.038,0.315,5.985,4.295,3.79,7.704
		C150.208,234.714,150.11,234.914,149.957,235.184z M144.702,239.773c0,3.021,0.526,3.452,3.343,2.724
		c1.678-0.437,2.565-1.673,2.28-3.18c-0.341-1.774-1.999-2.696-4.589-2.476c-1.892,0.163-0.697,1.667-1.028,2.514
		C144.658,239.476,144.702,239.633,144.702,239.773z M144.702,231.802c0.002,0,0.009,0,0.015,0c0,0.699-0.059,1.406,0.024,2.099
		c0.034,0.282,0.358,0.734,0.577,0.753c1.196,0.101,2.369-0.024,3.095-1.173c0.623-0.984,0.557-2.931-0.338-3.502
		c-0.798-0.512-1.876-0.586-2.833-0.853c-0.182,0.657-0.375,1.312-0.534,1.976C144.656,231.322,144.702,231.567,144.702,231.802z"/>
	<path fill="#FFFFFF" d="M87.917,237.364c1.857,2.571,3.605,4.992,5.373,7.438c-2.22,0.678-2.857,0.463-4.056-1.261
		c-1.155-1.656-2.305-3.311-3.472-4.953c-0.277-0.392-0.627-0.734-0.943-1.099c-0.129,0.039-0.262,0.074-0.393,0.11
		c0,2.437,0,4.872,0,7.392c-1.013,0-1.78,0-2.573,0c-0.063-0.254-0.146-0.426-0.148-0.606c-0.007-5.535-0.023-11.07,0.03-16.609
		c0.001-0.336,0.526-0.964,0.809-0.964c1.816,0.005,3.668-0.025,5.449,0.288c2.292,0.401,3.687,2.063,3.94,4.191
		c0.287,2.432-0.734,4.429-2.812,5.5C88.786,236.959,88.449,237.11,87.917,237.364z M84.347,229.374
		c0,1.702-0.023,3.339,0.022,4.973c0.009,0.295,0.234,0.735,0.482,0.849c0.876,0.41,3.25-0.271,3.892-1.095
		c0.828-1.062,0.896-2.246,0.318-3.435C88.46,229.432,86.699,228.943,84.347,229.374z"/>
	<path fill="#FFFFFF" d="M190.544,245.127c3.069-6.605,5.979-12.877,9.041-19.475c2.956,6.571,5.786,12.854,8.626,19.167
		c-2.414,0.606-2.802,0.552-3.484-1.558c-0.7-2.184-1.912-3.15-4.185-2.706c-0.178,0.037-0.377,0.031-0.561,0
		c-3.098-0.498-5.411,0.191-6.273,3.672C193.333,245.744,191.918,244.882,190.544,245.127z M196.605,238.006
		c2.014,0,3.785,0,5.776,0c-0.941-2.144-1.797-4.108-2.826-6.454C198.462,233.943,197.563,235.91,196.605,238.006z"/>
	<path fill="#FFFFFF" d="M71.488,244.939c-2.712,0.338-2.886,0.394-3.629-1.89c-0.672-2.059-1.799-2.781-3.893-2.519
		c-1.387,0.169-2.819-0.052-4.213,0.076c-0.523,0.048-1.113,0.495-1.477,0.926c-0.377,0.443-0.52,1.087-0.779,1.642
		c-0.968,2.081-0.969,2.081-3.636,1.773c2.958-6.376,5.887-12.678,8.958-19.298C65.769,232.215,68.593,238.5,71.488,244.939z
		 M62.777,231.552c-1.088,2.379-1.994,4.361-2.96,6.486c2.07,0,3.824,0,5.824,0C64.695,235.895,63.825,233.924,62.777,231.552z"/>
	<path fill="#FFFFFF" d="M99.27,229.133c0,1.443-0.066,2.659,0.042,3.857c0.03,0.309,0.592,0.789,0.934,0.812
		c1.403,0.095,2.816,0.042,4.224,0.045c2.143,0.001,2.209,0.087,1.747,2.414c-2.235,0-4.513,0-6.868,0c0,2.16,0,4.152,0,6.346
		c2.393,0,4.755,0,7.199,0c0,0.883,0,1.559,0,2.361c-3.274,0-6.526,0-9.878,0c0-6.017,0-11.999,0-18.097c3.301,0,6.548,0,9.881,0
		c0,0.767,0,1.448,0,2.262C104.173,229.133,101.84,229.133,99.27,229.133z"/>
	<path fill="#FFFFFF" d="M137.377,233.697c0,1.876,0.074,3.756-0.014,5.629c-0.17,3.517-3.12,6.115-6.805,6.09
		c-3.595-0.029-6.533-2.665-6.625-6.131c-0.099-3.798-0.006-7.601-0.062-11.399c-0.014-1.007,0.468-1.155,1.287-1.153
		c0.823,0.002,1.338,0.176,1.324,1.16c-0.032,3.004-0.018,6.005-0.002,9.009c0.002,0.749,0.016,1.5,0.095,2.245
		c0.262,2.405,1.652,3.752,3.894,3.817c2.384,0.071,4.028-1.143,4.18-3.596c0.23-3.734,0.188-7.492,0.166-11.241
		c-0.006-1.175,0.469-1.43,1.508-1.401c0.876,0.023,1.123,0.395,1.106,1.205c-0.036,1.925-0.011,3.85-0.011,5.771
		C137.405,233.697,137.394,233.697,137.377,233.697z"/>
	<path fill="#FFFFFF" d="M32.364,226.775c0,0.873,0,1.548,0,2.421c-2.032,0-3.995,0.058-5.952-0.023
		c-1.126-0.047-1.585,0.249-1.546,1.468c0.115,3.778-0.492,3.144,3.206,3.201c1.303,0.021,2.609,0.003,4.012,0.003
		c0,0.86,0,1.575,0,2.459c-2.379,0-4.701,0-7.179,0c0,1.981-0.042,3.798,0.05,5.612c0.014,0.258,0.689,0.679,1.065,0.688
		c2.096,0.072,4.198,0.034,6.361,0.034c0,0.878,0,1.556,0,2.426c-3.137,0-6.219,0.023-9.301-0.041
		c-0.247-0.006-0.69-0.599-0.694-0.921c-0.042-5.444-0.042-10.893,0-16.335c0.004-0.333,0.433-0.943,0.671-0.949
		C26.139,226.752,29.224,226.775,32.364,226.775z"/>
	<path fill="#FFFFFF" d="M188.275,241.301c0.418,2.844,0.206,3.176-2.356,3.83c-3.918,1.006-7.99-0.478-10.312-3.76
		c-2.19-3.099-2.163-7.594,0.068-10.852c2.289-3.344,6.322-4.885,10.232-3.909c2.479,0.62,2.778,1.092,2.377,3.739
		c-5.332-2.161-8.116-1.795-10.348,1.362c-1.927,2.725-1.75,6.58,0.414,9.002C180.774,243.43,183.882,243.639,188.275,241.301z"/>
	<path fill="#FFFFFF" d="M113.117,244.957c-2.568,0.268-2.571,0.268-2.571-1.935c-0.004-4.878,0.033-9.751-0.027-14.625
		c-0.02-1.301,0.414-1.77,1.696-1.661c1.213,0.102,2.437,0.013,3.649,0.094c2.787,0.187,4.745,2.164,4.874,4.856
		c0.151,3.043-1.538,5.224-4.428,5.722c-0.093,0.015-0.182,0.021-0.276,0.031c-2.913,0.357-2.913,0.357-2.913,3.274
		C113.117,242.108,113.117,243.5,113.117,244.957z M114.449,235.141c2.852-0.192,4.216-1.559,3.757-3.668
		c-0.36-1.669-3.182-3.075-4.665-2.275c-0.236,0.127-0.39,0.6-0.402,0.92c-0.045,1.217,0.04,2.443-0.036,3.658
		C113.031,234.899,113.411,235.384,114.449,235.141z"/>
	<path fill="#FFFFFF" d="M43.885,245.082c0-1.926,0-3.607,0-5.286c0-3.896,0.032-7.792-0.023-11.689
		c-0.015-1.041,0.303-1.386,1.357-1.392c1.108-0.006,1.321,0.454,1.313,1.442c-0.04,4.317,0.03,8.636-0.047,12.95
		c-0.02,1.271,0.386,1.656,1.609,1.556c1.203-0.097,2.423-0.022,3.602-0.022c0.614,2.289,0.499,2.437-1.705,2.437
		C48.03,245.082,46.065,245.082,43.885,245.082z"/>
	<path fill="#FFFFFF" d="M159.336,242.624c1.839,0,3.506,0,5.285,0c0,0.851,0,1.561,0,2.37c-2.62,0-5.174,0-7.844,0
		c0-6.012,0-11.985,0-18.104c0.801,0,1.595,0,2.559,0C159.336,232.136,159.336,237.31,159.336,242.624z"/>
	<path fill="#FFFFFF" d="M170.025,245.01c-0.69,0-1.429,0-2.28,0c0-6.003,0-11.987,0-18.141c0.548-0.033,1.146-0.155,1.719-0.064
		c0.295,0.047,0.764,0.463,0.764,0.712c0.006,5.771-0.036,11.534-0.077,17.303C170.15,244.86,170.099,244.896,170.025,245.01z"/>
	<path fill="#FFFFFF" d="M132.775,220.254c0.491,0.351,1.129,0.802,1.933,1.379c-1.504,1.019-2.845,2.015-4.284,2.841
		c-0.326,0.188-0.984-0.204-1.538-0.343C130.285,222.737,131.485,221.541,132.775,220.254z"/>
</g>
<g>
	<path fill="#FFFFFF" d="M56.909,70.503c0.779,0,1.335,0,1.891,0c31.574,0,63.146,0,94.722,0c2.624,0,2.136-0.074,2.136,2.211
		c0.016,19.686,0.021,39.374,0.025,59.059c0.003,21.193-12.873,39.602-32.775,46.876c-18.752,6.854-40.596,1.176-53.678-13.876
		c-6.731-7.751-10.699-16.701-11.995-26.842c-0.273-2.133-0.31-4.311-0.312-6.468c-0.023-19.732-0.014-39.467-0.014-59.199
		C56.909,71.755,56.909,71.247,56.909,70.503z M95.72,165.418c0.024-0.447,0.049-0.894,0.091-1.674
		c-2.003,0.652-3.888,0.932-5.315,2.351c-1.201,1.201-1.905,2.609-1.855,4.388c1.177,0.303,1.922,0.314,2.156-1.145
		c0.233-1.466,2.217-3.211,3.243-2.849c1.307,0.457,1.433-0.298,1.704-1.113c0.089,0.377,0.074,1.002,0.284,1.088
		c1.866,0.779,2.794,2.237,3.04,4.11c1.061,0,1.941,0,2.99,0c0.028-2.39,1.743-3.498,3.542-4.495
		c0.716,0.887,1.042,0.841,1.489-0.153c0.264,0.235,0.535,0.586,0.887,0.772c1.236,0.645,2.142,1.571,2.362,2.96
		c0.174,1.108,0.9,0.994,1.649,0.98c0.777-0.017,1.446,0.128,1.823-1c0.339-1.023,1.093-2.168,1.991-2.686
		c1.219-0.695,1.249-1.291,0.577-2.371c-2.014,0.359-3.293,1.714-4.369,3.542c-1.328-2.591-3.531-4.134-5.899-3.998
		c-2.201,0.125-4.461,1.459-5.398,3.574c-1.237-1.002-2.353-1.958-3.53-2.835C96.521,164.376,95.967,164.589,95.72,165.418z
		 M153.515,72.605c-0.625,0-1.089,0-1.55,0c-30.401,0-60.8,0.012-91.198-0.027c-1.397-0.001-1.822,0.312-1.817,1.774
		c0.052,19.828,0.034,39.655,0.037,59.481c0,0.496,0.051,0.992,0.078,1.488c4.682,0,9.211,0,13.773,0c0-1.391,0-2.675,0-3.958
		c-0.555-0.092-1.011-0.166-1.444-0.24c-0.255-1.292-0.18-1.185,0.736-1.813c1.21-0.836,2.557-1.677,2.206-3.553
		c-0.071-0.383,0.064-0.808,0.134-1.516c1.475,0.199,2.831,0.429,4.201,0.556c1.103,0.102,2.22,0.171,3.325,0.104
		c1.432-0.088,2.853-0.34,4.284-0.494c0.464-0.05,0.964,0.069,1.398-0.062c0.264-0.079,0.544-0.466,0.593-0.754
		c0.036-0.208-0.265-0.652-0.471-0.69c-1.478-0.269-2.963-0.567-4.457-0.652c-1.921-0.11-3.852-0.038-5.779-0.027
		c-0.415,0.005-0.834,0.067-1.245,0.142c-1.077,0.196-2.152,0.415-3.314,0.643c0-1.006,0-1.604,0-2.29
		c1.115-0.011,1.227-0.747,1.518-1.61c0.487-1.436,1.118-2.941,2.091-4.067c2.979-3.451,6.977-4.792,11.443-4.801
		c12.075-0.021,24.15-0.016,36.224,0.007c1.212,0.001,2.448,0.083,3.633,0.327c4.301,0.885,9.557,3.495,10.461,9.869
		c1.101,0,1.37,0.667,1.249,1.654c-0.145,1.175-1.072,0.75-1.645,0.708c-1.065-0.083-2.121-0.582-3.169-0.547
		c-3.231,0.104-6.454,0.36-9.673,0.622c-0.302,0.027-0.567,0.521-0.848,0.795c0.32,0.239,0.619,0.646,0.965,0.69
		c1.842,0.25,3.69,0.466,5.543,0.576c1.055,0.061,2.123-0.078,3.179-0.183c1.364-0.132,2.725-0.322,4.02-0.476
		c0.255,1.39,0.196,2.614,0.72,3.491c0.524,0.872,1.636,1.389,2.569,2.125c0,0.271,0,0.725,0,1.209
		c-0.562,0.102-1.052,0.191-1.541,0.281c0,1.374,0,2.654,0,3.934c4.648,0,9.178,0,13.772,0
		C153.515,114.423,153.515,93.63,153.515,72.605z M72.994,161.852c0.657,0,1.167-0.007,1.671,0
		c6.045,0.024,12.087,0.408,18.113,0.481c11.145,0.129,22.311,0.722,33.46-0.418c3.904-0.397,7.885-0.065,11.828-0.061
		c0.458,0,0.914,0.039,1.347,0.061c0.663,3.184,0.545,3.344-2.439,3.344c-3.664,0-7.326-0.003-10.99,0.009
		c-0.398,0.003-0.798,0.104-1.203,0.162c0,0.485,0,0.844,0,1.228c0.286,0.067,0.507,0.163,0.733,0.163
		c4.086,0.011,8.173,0.008,12.258,0c0.274,0,0.652,0.019,0.812-0.144c1.728-1.722,3.421-3.473,5.153-5.252
		c-1.472-1.086-3.546,0.657-4.191-1.765c-4.652,0-9.345-0.006-14.033,0.013c-0.251,0-0.505,0.168-0.745,0.288
		c-0.403,0.197-0.796,0.593-1.197,0.593c-11.458,0.034-22.918,0.026-34.376,0.018c-0.364,0-0.963,0.021-1.054-0.164
		c-0.506-1.047-1.415-0.726-2.206-0.751c-1.218-0.037-2.44-0.009-3.663-0.009c-3.093,0-6.188,0-9.247,0
		c-0.612,2.478-2.84,0.592-4.134,1.805c1.587,1.685,3.125,3.377,4.743,4.984c0.306,0.306,0.945,0.389,1.43,0.392
		c3.802,0.032,7.607,0.029,11.412,0.014c0.608-0.003,1.528,0.193,1.333-0.857c-0.059-0.31-0.872-0.686-1.345-0.694
		c-3.991-0.052-7.984-0.024-11.975-0.032c-0.495,0-0.988-0.047-1.5-0.076C72.994,164.03,72.994,163.052,72.994,161.852z
		 M138.209,131.259c-3.945,0-7.878-0.008-11.812,0.014c-0.24,0-0.659,0.167-0.69,0.317c-0.193,0.97-0.915,0.771-1.544,0.771
		c-11.455,0.007-22.91,0.023-34.365-0.022c-1.083-0.006-2.489,0.651-3.143-0.979c-0.049-0.129-0.525-0.103-0.801-0.111
		c-0.656-0.013-1.312,0-1.97,0c-3.185,0-6.37,0-9.513,0c-0.699,2.556-0.475,2.891,1.89,2.896c3.801,0.011,7.606,0.003,11.408,0.013
		c0.265,0,0.531,0.084,0.792,0.127c0.1,0.476,0.186,0.875,0.273,1.285c11.757,0,23.424,0,35.185,0
		c-0.165-1.395,0.648-1.447,1.65-1.435c3.52,0.037,7.04,0.014,10.562,0.014c2.471,0,2.471,0,2.216-2.531
		C138.341,131.575,138.314,131.533,138.209,131.259z M109.947,174.356c0,0,0.001,0,0.003,0c0-1.172,0.011-2.346-0.002-3.517
		c-0.024-2.334-1.49-3.953-3.623-4.021c-1.94-0.062-3.59,1.465-3.689,3.654c-0.118,2.621-0.045,5.249-0.072,7.88
		c-0.007,0.701,0.275,1.015,1.002,1.005c1.829-0.021,3.663,0.037,5.488-0.043c0.31-0.016,0.828-0.551,0.851-0.878
		C110.001,177.083,109.947,175.717,109.947,174.356z M106.389,125.741c-1.172,0-2.345,0-3.517,0c-4.32,0-8.637-0.019-12.953,0.028
		c-0.442,0.004-0.876,0.412-1.313,0.632c0.407,0.243,0.804,0.517,1.232,0.723c0.384,0.187,0.813,0.279,1.206,0.457
		c0.451,0.204,0.882,0.659,1.321,0.661c9.29,0.037,18.582,0.03,27.873,0.027c0.322,0,0.891-0.004,0.928-0.126
		c0.362-1.242,1.364-0.94,2.226-1.063c0.221-0.029,0.538-0.405,0.542-0.628c0.005-0.223-0.29-0.58-0.521-0.649
		c-0.392-0.118-0.836-0.064-1.257-0.065C116.899,125.737,111.645,125.739,106.389,125.741z M114.22,178.869
		c2.197-0.546,4.183-1.062,6.18-1.528c0.833-0.198,1.103-0.651,1.075-1.493c-0.057-1.78,0.008-3.563-0.023-5.344
		c-0.038-1.987-1.436-3.489-3.373-3.68c-1.688-0.169-3.658,1.059-3.797,2.848C114.054,172.633,114.22,175.623,114.22,178.869z
		 M98.318,178.879c0-3.309,0.166-6.339-0.066-9.342c-0.13-1.694-2.106-2.859-3.76-2.706c-1.884,0.175-3.303,1.606-3.375,3.524
		c-0.066,1.868-0.081,3.75,0.019,5.618c0.024,0.451,0.501,1.142,0.913,1.266C94.047,177.852,96.096,178.315,98.318,178.879z
		 M72.204,157.683c0.192-0.009,0.385-0.022,0.577-0.031c0.053-0.168,0.15-0.341,0.15-0.507c0.009-5.539,0-11.081,0.028-16.621
		c0.004-0.973-0.54-1.025-1.27-1.021c-2.63,0.018-5.261,0.006-7.89,0.008c-1.39,0-2.78,0-4.156,0
		c-0.196,2.888,0.059,3.18,2.558,3.177c2.722,0,5.448-0.032,8.169,0.031c0.558,0.012,1.646-0.536,1.601,0.675
		c-0.043,1.155-1.102,0.599-1.671,0.611c-2.816,0.064-5.632,0.019-8.449,0.034c-0.457,0.003-0.911,0.139-1.367,0.212
		c0.005,0.206,0.012,0.411,0.018,0.62c3.805,0.189,7.638-0.031,11.47,0.116C72.228,149.339,71.817,153.532,72.204,157.683z
		 M152.071,144.741c0.005-0.158,0.009-0.311,0.014-0.468c-0.444-0.076-0.893-0.224-1.34-0.227c-3.006-0.02-6.013-0.017-9.019-0.008
		c-0.818,0.002-1.458-0.106-0.996-1.349c0.458,0,0.964,0,1.47,0c3.053,0,6.108,0.026,9.161-0.015
		c0.438-0.008,1.14-0.215,1.262-0.513c0.302-0.746,0.341-1.603,0.481-2.389c-0.318-0.124-0.447-0.217-0.576-0.217
		c-3.99-0.019-7.985-0.022-11.976-0.045c-0.901-0.002-0.936,0.569-0.934,1.224c0.006,5.356,0.003,10.708,0.02,16.066
		c0,0.312,0.149,0.622,0.229,0.932c0.145-0.002,0.289-0.01,0.435-0.013c0.071-0.462,0.199-0.919,0.201-1.378
		c0.018-3.334,0.048-6.672-0.006-10.007c-0.021-1.106,0.342-1.449,1.453-1.42c2.911,0.074,5.825,0.034,8.735,0.017
		C151.146,144.924,151.61,144.805,152.071,144.741z M131.89,130.755c0,0.006,0,0.009,0,0.009c2.296,0,4.59,0.026,6.883-0.021
		c0.403-0.009,0.806-0.284,1.205-0.437c-0.17-0.361-0.268-0.792-0.523-1.073c-3.811-4.245-11.086-4.23-14.901,0.029
		c-0.254,0.286-0.335,0.718-0.501,1.082c0.364,0.137,0.73,0.387,1.097,0.392C127.397,130.774,129.646,130.755,131.89,130.755z
		 M88.751,130.761c-0.425-0.782-0.595-1.346-0.958-1.72c-3.951-4.067-10.733-3.994-14.605,0.154
		c-0.289,0.306-0.394,0.786-0.582,1.182c0.416,0.128,0.835,0.369,1.252,0.373c4.127,0.026,8.255,0.014,12.382,0.011
		C86.934,130.761,87.626,130.761,88.751,130.761z M92.426,145.926c0,3.862-0.254,7.537,0.12,11.148
		c0.163,1.562,2.154,0.419,3.279,0.689c0.551,0.129,1.292,0.132,1.292-0.819c0-3.377,0.024-6.753-0.037-10.129
		c-0.006-0.3-0.568-0.814-0.909-0.847C95.016,145.86,93.844,145.926,92.426,145.926z M103.893,146.002c0,2.905,0,5.661,0,8.414
		c0,3.472,0,3.434,3.424,3.395c1.026-0.012,1.401-0.319,1.378-1.371c-0.059-2.718-0.019-5.44-0.019-8.154c0-0.738,0-1.472,0-2.282
		C107.015,146.002,105.58,146.002,103.893,146.002z M78.197,156.753c1.664,0,3.123,0,4.56,0c0-4.133,0-8.131,0-12.206
		c-1.278,0-2.453-0.062-3.61,0.039c-0.337,0.03-0.906,0.527-0.91,0.819C78.178,149.139,78.197,152.875,78.197,156.753z
		 M129.78,156.859c1.356,0,2.574,0.067,3.773-0.048c0.303-0.029,0.78-0.635,0.786-0.979c0.06-3.43,0.059-6.86,0.013-10.29
		c-0.006-0.33-0.418-0.919-0.676-0.938c-1.285-0.099-2.583-0.046-3.897-0.046C129.78,148.729,129.78,152.667,129.78,156.859z
		 M120.019,145.934c-1.321,0-2.535-0.066-3.731,0.042c-0.315,0.026-0.826,0.58-0.832,0.899c-0.063,3.321-0.061,6.645-0.005,9.966
		c0.005,0.313,0.462,0.863,0.742,0.883c1.243,0.1,2.498,0.046,3.826,0.046C120.019,153.803,120.019,149.983,120.019,145.934z
		 M106.153,124.399c5.492,0,10.983,0.006,16.475-0.011c0.535-0.001,1.31,0.283,1.339-0.738c0.03-1.023-0.724-0.802-1.28-0.802
		c-10.891-0.009-21.779-0.009-32.668,0.005c-0.579,0-1.458-0.296-1.409,0.814c0.049,1.104,0.932,0.712,1.49,0.716
		C95.453,124.412,100.803,124.399,106.153,124.399z M115.537,139.914c-1.053-0.03-1.543,0.298-1.541,1.437
		c0,1.2,0.535,1.409,1.532,1.391c0.328-0.004,0.651,0.343,1.002,0.417c0.663,0.143,1.38,0.381,2.004,0.252
		c0.958-0.197,1.859-0.672,2.834-1.05c0-0.674,0-1.446,0-2.237c-0.441-0.072-0.8-0.126-1.154-0.184
		c0.001-0.091,0.003-0.178,0.004-0.268c1.227,0,2.451,0,3.644,0c0.231-2.161,0.231-2.163-1.715-2.163
		c-4.356-0.003-8.714-0.007-13.071-0.007c-0.536,0-1.075,0-1.65,0C109.491,140.76,112.707,139.478,115.537,139.914z M96.818,139.865
		c3.091-0.425,6.228,0.95,8.114-2.186c-0.029-0.024-0.096-0.127-0.163-0.127c-5.117-0.017-10.231-0.044-15.349,0.011
		c-0.283,0.002-0.687,0.675-0.804,1.097c-0.167,0.602,0.046,1.108,0.848,1.088c1.014-0.022,2.029-0.003,3.043-0.003
		c0.006,0.071,0.014,0.142,0.02,0.215c-0.434,0.05-0.867,0.099-1.314,0.147c0,0.872,0,1.684,0,2.262
		c0.986,0.372,1.77,0.747,2.597,0.956c0.562,0.146,1.214,0.196,1.769,0.056c0.918-0.228,1.788-0.64,2.836-1.036
		c0-0.583,0-1.357,0-2.184C97.973,140.077,97.577,140.006,96.818,139.865z M65.792,146.986c0,3.296-0.037,6.377,0.04,9.463
		c0.009,0.433,0.54,1.187,0.89,1.225c1.037,0.106,2.104-0.055,3.154-0.162c0.08-0.007,0.17-0.416,0.172-0.636
		c0.009-2.999,0.028-5.998-0.031-8.995c-0.004-0.306-0.48-0.83-0.775-0.856C68.147,146.922,67.032,146.986,65.792,146.986z
		 M142.516,152.35c-0.003,0-0.004,0-0.009,0c0,0.609,0,1.216,0,1.828c0,0.655,0.067,1.321-0.015,1.967
		c-0.165,1.3,0.35,1.706,1.643,1.673c2.519-0.067,2.655-0.129,2.669-2.607c0.008-1.782,0.003-3.559,0.004-5.342
		c0-3.195-0.033-3.209-3.317-2.904c-0.703,0.064-0.999,0.313-0.984,1.029C142.533,149.446,142.516,150.898,142.516,152.35z
		 M83.584,138.174c0.655,0,1.35,0.002,2.043,0c0.654-0.003,1.334,0.135,1.363-0.912c0.028-1.021-0.51-1.142-1.323-1.136
		c-3.333,0.021-6.667,0.003-9.999,0.009c-1.668,0.01-1.819,0.24-1.269,2.072c1.017,0,2.079,0,3.104,0
		c0.476,2.08,1.534,3.106,3.073,3.088C82.102,141.282,83.138,140.245,83.584,138.174z M138.378,138.183
		c-0.122-0.95,0.578-2.035-0.936-2.042c-3.601-0.018-7.203,0.003-10.807-0.015c-0.798-0.006-1.214,0.366-0.998,1.087
		c0.115,0.387,0.613,0.85,1,0.917c0.802,0.145,1.646,0.043,2.439,0.043c0.245,1.931,1.342,3.069,2.843,3.122
		c1.596,0.06,2.678-0.979,3.124-3.116C136.069,138.183,137.123,138.183,138.378,138.183z M106.443,129.608
		c-4.742,0-9.48-0.011-14.22,0.023c-0.372,0.006-0.741,0.334-1.112,0.513c0.351,0.201,0.686,0.445,1.058,0.599
		c0.2,0.079,0.462,0.018,0.696,0.018c8.917,0,17.832,0,26.75,0c0.232,0,0.489,0.057,0.698-0.018
		c0.386-0.138,0.742-0.359,1.107-0.541c-0.346-0.198-0.68-0.429-1.046-0.579c-0.202-0.079-0.463-0.015-0.697-0.015
		C115.264,129.608,110.854,129.608,106.443,129.608z M94.648,119.865c1.463,0.003,2.585-1.122,2.57-2.576
		c-0.017-1.366-1.14-2.527-2.482-2.56c-1.39-0.033-2.638,1.155-2.669,2.543C92.034,118.685,93.206,119.864,94.648,119.865z
		 M108.793,117.256c-0.018-1.43-1.209-2.59-2.606-2.536c-1.355,0.051-2.457,1.203-2.463,2.578c-0.009,1.441,1.139,2.585,2.576,2.575
		C107.782,119.858,108.817,118.776,108.793,117.256z M117.893,119.864c1.458,0.003,2.537-1.074,2.57-2.565
		c0.031-1.336-1.098-2.507-2.458-2.552c-1.424-0.049-2.587,1.078-2.613,2.524C115.366,118.782,116.403,119.857,117.893,119.864z
		 M123.86,170.498c0.574-3.441-4.234-7.057-7.337-6.261c0.383,0.838,0.742,1.629,1.102,2.418c0.393-0.261,0.787-0.519,1.014-0.666
		c0.28,0.226,0.685,0.466,0.987,0.801c0.76,0.85,1.821,1.636,2.121,2.638C122.141,170.746,122.759,170.771,123.86,170.498z
		 M106.21,143.543c1.366,0.025,2.422-1.007,2.409-2.352c-0.011-1.255-1.072-2.293-2.343-2.29c-1.266,0-2.317,1.028-2.348,2.299
		C103.897,142.464,104.923,143.516,106.21,143.543z M66.103,138.174c1.876,0,3.754,0.033,5.625-0.028
		c0.398-0.016,0.786-0.372,1.179-0.571c-0.372-0.184-0.742-0.525-1.117-0.531c-3.842-0.039-7.686-0.039-11.531,0
		c-0.376,0.006-0.746,0.344-1.121,0.531c0.399,0.2,0.793,0.56,1.201,0.574C62.261,138.211,64.182,138.177,66.103,138.174z
		 M146.342,138.177c0,0,0-0.002,0-0.006c2.012,0,4.023,0.031,6.038-0.029c0.353-0.009,0.693-0.384,1.04-0.59
		c-0.328-0.176-0.657-0.502-0.984-0.502c-3.887-0.04-7.774-0.046-11.659-0.012c-0.37,0.006-0.734,0.355-1.102,0.546
		c0.396,0.197,0.787,0.553,1.19,0.564C142.689,138.213,144.517,138.177,146.342,138.177z M79.19,170.483
		c-0.032,0.128-0.064,0.257-0.097,0.384c0.585,0.363,1.147,1.007,1.756,1.044c2.146,0.143,4.308,0.093,6.462,0.052
		c0.194-0.005,0.536-0.525,0.516-0.787c-0.018-0.243-0.417-0.656-0.655-0.666C84.514,170.464,81.851,170.483,79.19,170.483z
		 M133.439,171.066c-0.056-0.196-0.114-0.396-0.171-0.593c-2.569,0-5.138-0.025-7.705,0.037c-0.289,0.005-0.565,0.514-0.848,0.794
		c0.315,0.233,0.622,0.667,0.948,0.677c1.732,0.073,3.475,0.142,5.197,0C131.739,171.908,132.579,171.387,133.439,171.066z
		 M61.167,147.186c0.899,2.078,1.736,4.015,2.573,5.948c0.149-0.048,0.297-0.098,0.445-0.15c0-1.212,0-2.424,0-3.639
		C64.182,146.773,64.182,146.773,61.167,147.186z M148.501,153.003c0.126,0.036,0.253,0.074,0.38,0.114
		c0.812-1.96,1.629-3.921,2.51-6.039c-1.219,0-2.034,0-2.89,0C148.501,149.134,148.501,151.068,148.501,153.003z M94.783,159.861
		c0.938,0,1.883,0.069,2.809-0.036c0.324-0.037,0.597-0.497,0.894-0.764c-0.312-0.249-0.616-0.702-0.938-0.712
		c-1.827-0.068-3.656-0.061-5.482,0.009c-0.327,0.01-0.634,0.436-0.953,0.675c0.334,0.276,0.64,0.746,1.003,0.795
		C92.99,159.944,93.892,159.861,94.783,159.861z M117.669,159.861L117.669,159.861c0.986-0.002,1.979,0.063,2.954-0.041
		c0.299-0.031,0.55-0.525,0.821-0.806c-0.273-0.232-0.54-0.66-0.815-0.67c-1.877-0.055-3.759-0.059-5.635,0.015
		c-0.318,0.012-0.619,0.469-0.926,0.726c0.307,0.262,0.592,0.705,0.926,0.745C115.876,159.933,116.776,159.861,117.669,159.861z
		 M117.833,145.169c0.938,0,1.877,0.052,2.806-0.032c0.287-0.029,0.534-0.443,0.801-0.683c-0.257-0.193-0.51-0.553-0.771-0.556
		c-1.921-0.051-3.839-0.051-5.755-0.008c-0.275,0.008-0.544,0.347-0.818,0.534c0.264,0.249,0.511,0.687,0.795,0.711
		C115.863,145.224,116.851,145.172,117.833,145.169z M109.754,158.317c-2.119,0-4.175-0.029-6.225,0.032
		c-0.321,0.013-0.627,0.455-0.94,0.693c0.341,0.277,0.668,0.766,1.021,0.783c1.729,0.083,3.461,0.013,5.195,0.049
		C109.86,159.899,110.132,159.448,109.754,158.317z M91.341,143.886c-0.121,0.142-0.239,0.283-0.36,0.427
		c0.312,0.283,0.614,0.808,0.937,0.818c1.923,0.079,3.852,0.066,5.771,0c0.274-0.01,0.538-0.46,0.804-0.706
		c-0.274-0.179-0.544-0.508-0.821-0.515C95.56,143.865,93.45,143.886,91.341,143.886z M110.123,144.377
		c-0.102-0.166-0.205-0.326-0.307-0.492c-0.272,0-0.598-0.098-0.807,0.016c-1.822,0.998-3.609,1.028-5.453,0.024
		c-0.178-0.096-0.626,0.298-0.952,0.463c0.293,0.258,0.581,0.734,0.882,0.743c1.872,0.069,3.747,0.074,5.616-0.001
		C109.453,145.113,109.785,144.638,110.123,144.377z M109.503,141.36c0.296,0.512,0.524,0.913,0.754,1.316
		c0.218-0.384,0.615-0.77,0.603-1.144c-0.015-0.495-0.347-0.983-0.544-1.474C110.071,140.451,109.823,140.847,109.503,141.36z
		 M103.071,141.408c-0.319-0.545-0.556-0.944-0.793-1.349c-0.208,0.483-0.556,0.953-0.578,1.445
		c-0.016,0.373,0.373,0.771,0.579,1.158C102.525,142.275,102.767,141.891,103.071,141.408z M112.079,176.729
		c-0.471,0.309-0.809,0.537-1.145,0.762c0.385,0.21,0.764,0.567,1.158,0.587c0.336,0.013,0.691-0.366,1.039-0.572
		C112.818,177.271,112.5,177.037,112.079,176.729z M100.448,172.727c0.469-0.326,0.801-0.56,1.131-0.793
		c-0.346-0.197-0.688-0.545-1.04-0.552c-0.362-0.009-0.733,0.308-1.1,0.482C99.738,172.12,100.037,172.371,100.448,172.727z
		 M111.953,171.071c-0.402,0.354-0.699,0.61-0.995,0.867c0.374,0.173,0.753,0.498,1.124,0.489c0.354-0.013,0.693-0.369,1.044-0.574
		C112.782,171.624,112.442,171.396,111.953,171.071z M100.529,178.374c0.436-0.328,0.756-0.572,1.078-0.817
		c-0.343-0.194-0.691-0.562-1.026-0.552c-0.388,0.019-0.764,0.365-1.146,0.567C99.761,177.812,100.082,178.049,100.529,178.374z
		 M125.779,150.525c0,0.11,0,0.224,0,0.334c0.93,0,1.859,0,2.788,0c0-0.11,0.002-0.224,0.002-0.334
		C127.638,150.525,126.71,150.525,125.779,150.525z M77.124,150.869c-0.014-0.1-0.025-0.205-0.038-0.305c-0.939,0-1.88,0-2.819,0
		c0.005,0.1,0.01,0.206,0.014,0.305C75.229,150.869,76.176,150.869,77.124,150.869z M138.288,156.753
		c-0.007-0.113-0.015-0.23-0.021-0.345c-0.94,0-1.88,0-2.822,0c0.002,0.115,0.005,0.228,0.005,0.345
		C136.397,156.753,137.34,156.753,138.288,156.753z M86.794,150.859c0-0.11,0.001-0.217,0.001-0.325c-0.926,0-1.852,0-2.779,0
		c0,0.107,0,0.214-0.002,0.325C84.94,150.859,85.867,150.859,86.794,150.859z M77.035,156.718c0-0.11,0-0.226,0.001-0.336
		c-0.933,0-1.863,0-2.796,0c0,0.11,0,0.226-0.001,0.336C75.17,156.718,76.102,156.718,77.035,156.718z"/>
	<path fill="#FFFFFF" d="M90.038,103.895c0.253,0.145,0.743,0.67,1.237,0.672c10.129,0.044,20.257,0.028,30.388,0.023
		c0.136,0,0.273-0.041,0.504-0.078c0.095-0.397,0.194-0.817,0.294-1.234c0.074,0,0.148,0.001,0.226,0.007
		c0,0.528-0.096,1.081,0.021,1.582c0.182,0.771,0.512,1.511,0.771,2.267c0.15,0.442,0.29,0.888,0.51,1.558c-0.789,0-1.293,0-1.8,0
		c-10.651,0-21.302,0.005-31.953-0.013c-0.469,0-0.937-0.215-1.407-0.329c0.17-0.498,0.377-0.988,0.507-1.498
		C89.624,105.726,89.876,104.588,90.038,103.895z M96.155,106.046c0.012-0.192,0.024-0.382,0.035-0.573
		c-0.346-0.222-0.698-0.618-1.044-0.616c-0.297,0.001-0.852,0.488-0.824,0.705c0.043,0.361,0.408,0.865,0.737,0.957
		C95.355,106.606,95.784,106.222,96.155,106.046z M98.177,106.018c0.002-0.196,0.007-0.393,0.012-0.591
		c-0.359-0.206-0.755-0.621-1.065-0.561c-0.336,0.064-0.746,0.531-0.821,0.887c-0.044,0.21,0.471,0.741,0.775,0.775
		C97.422,106.563,97.808,106.205,98.177,106.018z M92.071,105.914c-0.013-0.198-0.026-0.395-0.041-0.59
		c-0.368-0.173-0.767-0.522-1.097-0.463c-0.31,0.051-0.824,0.615-0.766,0.801c0.116,0.361,0.534,0.794,0.89,0.859
		C91.351,106.573,91.731,106.133,92.071,105.914z M100.191,105.988c0-0.198,0-0.397,0-0.597c-0.352-0.193-0.756-0.598-1.042-0.526
		c-0.341,0.084-0.739,0.544-0.808,0.901c-0.041,0.21,0.49,0.72,0.801,0.751C99.468,106.553,99.839,106.182,100.191,105.988z
		 M120.486,106.002c0.001-0.199,0.005-0.397,0.006-0.596c-0.349-0.198-0.747-0.606-1.037-0.54c-0.342,0.079-0.745,0.535-0.818,0.889
		c-0.045,0.208,0.479,0.726,0.793,0.764C119.754,106.559,120.131,106.193,120.486,106.002z M118.481,106.012
		c0.002-0.193,0.007-0.387,0.013-0.577c-0.355-0.207-0.751-0.627-1.049-0.568c-0.341,0.068-0.743,0.532-0.824,0.89
		c-0.046,0.204,0.477,0.737,0.779,0.767C117.737,106.562,118.116,106.201,118.481,106.012z M105.55,104.648
		c-0.198,0.004-0.397,0.007-0.595,0.013c-0.184,0.36-0.535,0.739-0.5,1.078c0.032,0.304,0.558,0.833,0.746,0.784
		c0.367-0.095,0.834-0.479,0.908-0.821C106.176,105.405,105.755,105.003,105.55,104.648z M108.328,106.002
		c0.004-0.195,0.005-0.393,0.007-0.589c-0.353-0.203-0.717-0.581-1.052-0.555c-0.309,0.021-0.853,0.523-0.816,0.734
		c0.062,0.362,0.448,0.847,0.784,0.928C107.55,106.595,107.966,106.194,108.328,106.002z M109.008,106.726
		c0.193,0.002,0.386,0.006,0.579,0.01c0.197-0.351,0.565-0.714,0.543-1.048c-0.021-0.309-0.525-0.868-0.704-0.824
		c-0.371,0.085-0.852,0.447-0.938,0.785C108.413,105.944,108.817,106.363,109.008,106.726z M113.712,104.664
		c-0.194-0.001-0.392-0.005-0.586-0.006c-0.194,0.349-0.557,0.709-0.534,1.043c0.023,0.31,0.524,0.861,0.699,0.82
		c0.367-0.081,0.839-0.447,0.922-0.782C114.288,105.439,113.897,105.027,113.712,104.664z M115.697,104.632
		c-0.196,0.011-0.396,0.02-0.593,0.03c-0.181,0.365-0.535,0.755-0.492,1.093c0.043,0.303,0.582,0.815,0.789,0.765
		c0.362-0.087,0.83-0.498,0.893-0.841C116.351,105.379,115.915,104.986,115.697,104.632z M102.257,105.255
		c-0.225-0.222-0.451-0.444-0.675-0.667c-0.42,0.337-0.844,0.677-1.266,1.015c0.322,0.323,0.643,0.646,0.962,0.968
		C101.607,106.136,101.933,105.696,102.257,105.255z M122.54,105.198c-0.233-0.206-0.467-0.409-0.702-0.615
		c-0.406,0.357-0.814,0.714-1.22,1.069c0.338,0.311,0.674,0.621,1.01,0.93C121.932,106.12,122.236,105.658,122.54,105.198z
		 M103.241,104.324c-0.43,0.66-0.848,1.023-0.788,1.281c0.079,0.363,0.511,0.649,0.795,0.968c0.292-0.319,0.738-0.6,0.823-0.968
		C104.127,105.351,103.687,104.981,103.241,104.324z M110.292,105.491c0.011,0.187,0.021,0.371,0.034,0.557
		c0.366,0.178,0.756,0.523,1.095,0.48c0.286-0.039,0.757-0.578,0.711-0.808c-0.069-0.343-0.494-0.809-0.817-0.85
		C111.005,104.832,110.636,105.265,110.292,105.491z M93.367,104.652c-0.198,0.003-0.396,0.005-0.594,0.008
		c-0.183,0.357-0.531,0.732-0.499,1.068c0.031,0.303,0.553,0.837,0.726,0.791c0.365-0.099,0.826-0.474,0.903-0.812
		C93.972,105.411,93.565,105.007,93.367,104.652z"/>
	<path fill="#FFFFFF" d="M117.406,142.947c-0.388-0.578-0.998-1.111-1.109-1.734c-0.158-0.923,0.601-1.623,1.435-1.451
		c0.592,0.126,1.376,0.91,1.446,1.478c0.067,0.511-0.72,1.129-1.132,1.703C117.83,142.943,117.616,142.947,117.406,142.947z"/>
	<path fill="#FFFFFF" d="M96.486,141.565c-0.574,0.372-1.112,0.964-1.733,1.073c-0.914,0.16-1.635-0.538-1.427-1.412
		c0.14-0.599,0.899-1.375,1.458-1.444c0.518-0.064,1.138,0.706,1.713,1.111C96.493,141.114,96.49,141.338,96.486,141.565z"/>
</g>
</svg>
