<?xml version="1.0" encoding="utf-8"?>
<!-- Generator: Adobe Illustrator 16.0.0, SVG Export Plug-In . SVG Version: 6.00 Build 0)  -->
<!DOCTYPE svg PUBLIC "-//W3C//DTD SVG 1.1//EN" "http://www.w3.org/Graphics/SVG/1.1/DTD/svg11.dtd">
<svg version="1.1" id="gulp" xmlns="http://www.w3.org/2000/svg" xmlns:xlink="http://www.w3.org/1999/xlink" x="0px" y="0px"
	 width="212.6px" height="340.16px" viewBox="0 0 212.6 340.16" enable-background="new 0 0 212.6 340.16" xml:space="preserve">
<g id="g10" transform="matrix(1.3333333,0,0,-1.3333333,0,217.33333)">
	<g id="g12" transform="scale(0.1)">
		<path id="path14" fill="#FFFFFF" d="M286.661,493.618c0,9.719,7.705,17.439,17.432,17.439c9.397,0,17.12-7.72,17.12-17.439
			v-50.991h32.531c9.734,0,17.439-7.042,17.439-16.432c0-10.071-7.368-16.783-17.439-16.783h-32.531V321.85
			c0-12.729,6.702-20.779,15.425-20.779c9.738,0,11.404,2.673,17.78,2.673c8.386,0,16.765-6.028,16.765-16.099
			c0-8.379-6.368-14.751-14.747-16.443c-6.716-1.333-13.085-1.992-19.797-1.992c-27.502,0-49.977,21.46-49.977,52.31V493.618"/>
		<path id="path16" fill="#FFFFFF" d="M413.348,395.997c0,28.517,21.471,49.984,49.984,49.984c8.379,0,16.769-1.003,25.162-2.684
			c8.049-1.681,13.751-8.383,13.751-16.432c0-9.06-6.709-16.106-16.436-16.106c-2.014,0-3.018,0-5.709,0.67
			c-5.365,1.344-11.404,2.681-16.769,2.681c-8.386,0-15.425-7.039-15.425-15.425V286.643c0-9.727-7.723-17.432-17.12-17.432
			c-9.719,0-17.439,7.705-17.439,17.432V395.997"/>
		<path id="path18" fill="#FFFFFF" d="M586.774,279.267l-55.349,143.225c-0.667,2.021-1.34,4.373-1.34,6.383
			c0,8.719,8.053,17.106,17.787,17.106c7.039,0,13.414-4.365,15.754-11.067l40.25-110.369l34.552,109.691
			c2.351,7.05,9.067,11.744,16.11,11.744c9.053,0,17.783-7.383,17.783-17.446c0-1.67-0.344-3.688-1.018-5.361l-60.048-179.458
			c-9.045-27.517-32.531-45.967-64.395-45.967c-9.053,0-17.113,6.372-17.113,16.443c0,8.723,7.379,15.754,16.439,16.099
			c14.762,0.674,27.502,6.702,32.201,21.475L586.774,279.267"/>
		<path id="path20" fill="#FFFFFF" d="M810.405,378.225c0,21.13-13.748,35.885-35.892,35.885c-22.804,0-35.889-13.077-35.889-35.885
			v-41.602c0-22.478,13.085-35.552,35.889-35.552c22.819,0,35.892,13.074,35.892,35.552V378.225z M844.96,339.648
			c0-20.471-6.709-38.247-19.46-50.999c-12.737-12.737-30.524-19.438-50.988-19.438s-38.24,6.702-50.98,19.438
			c-12.748,12.751-19.468,30.527-19.468,50.999v35.9c0,20.449,6.72,38.236,19.468,50.98c12.74,12.74,30.516,19.453,50.98,19.453
			s38.251-6.713,50.988-19.453c12.751-12.744,19.46-30.531,19.46-50.98V339.648"/>
		<path id="path22" fill="#FFFFFF" d="M1014.677,493.618c0,9.719,7.72,17.439,17.446,17.439c9.397,0,17.102-7.72,17.102-17.439
			V286.643c0-9.727-7.705-17.432-17.102-17.432c-9.727,0-17.446,7.705-17.446,17.432V493.618"/>
		<path id="path24" fill="#FFFFFF" d="M1191.367,345.347h-34.563c-29.18,0-30.864-15.769-30.864-21.46
			c0-6.042,1.685-22.815,30.864-22.815c11.404,0,23.826,1.677,34.563,4.351V345.347z M1225.908,298.376
			c0-9.382-6.035-17.432-14.751-20.457c-16.45-5.698-35.566-8.708-54.346-8.708c-20.464,0-36.57,5.032-47.974,14.758
			c-11.396,9.727-17.439,23.474-17.439,39.917c0,16.436,6.042,29.176,17.439,38.558c11.404,9.734,27.51,14.769,47.974,14.769h34.556
			v11.737c0,14.095-10.4,25.159-27.839,25.159c-15.784,0-24.492-2.01-36.233-9.056c-2.695-1.674-6.379-3.014-9.404-3.014
			c-9.053,0-16.436,6.702-16.436,15.092c0,6.042,2.688,12.078,8.394,15.436c18.105,10.389,33.875,13.414,58.03,13.414
			c37.566,0,58.03-27.177,58.03-57.03V298.376"/>
		<path id="path26" fill="#FFFFFF" d="M1368.034,381.572c0,20.468-12.07,32.538-32.864,32.538c-12.085,0-23.167-4.358-32.549-12.07
			v-96.947c10.737-2.695,21.467-4.021,32.549-4.021c20.793,0,32.864,11.748,32.864,32.527V381.572z M1402.59,336.623
			c0-19.783-6.709-36.555-18.787-48.633c-12.07-12.422-28.85-18.779-48.633-18.779c-18.127,0-35.559,3.01-52.346,8.708
			c-8.723,3.025-14.751,11.074-14.751,20.457v195.242c0,9.719,7.712,17.439,17.446,17.439c9.382,0,17.102-7.72,17.102-17.439
			v-56.356c10.4,4.691,23.826,8.719,34.893,8.719c19.783,0,34.541-5.706,46.626-18.113c12.07-12.078,18.45-29.517,18.45-48.977
			V336.623"/>
		<path id="path28" fill="#FFFFFF" d="M1473.825,349.375c-18.113,6.705-32.205,20.793-32.205,45.952
			c0,29.52,24.492,50.654,58.03,50.654c22.822,0,34.563-3.354,45.63-8.386c6.709-2.681,11.06-8.719,11.06-15.762
			c0-8.727-7.039-16.102-16.084-16.102c-2.358,0-5.698,0.67-8.057,1.674c-8.386,4.025-22.148,6.705-33.208,6.705
			c-13.755,0-22.815-6.705-22.815-18.113c0-8.719,6.709-14.092,13.755-16.436l32.864-10.734
			c22.141-7.386,35.566-22.463,35.566-46.978c0-29.502-23.811-52.639-59.714-52.639c-19.79,0-35.889,3.684-48.311,9.382
			c-6.365,3.01-10.4,8.723-10.4,15.425c0,8.73,7.39,16.78,16.78,16.78c2.358,0,5.369-1.003,7.727-2.021
			c9.045-4.688,20.12-7.705,34.863-7.705c16.099,0,24.5,6.042,24.5,17.446c0,12.407-10.056,16.443-22.471,20.786L1473.825,349.375"
			/>
		<path id="path30" fill="#FFFFFF" d="M156.795,414.733c-6.866,0-13.323-2.67-18.179-7.518l-70.818-70.84
			c-4.863-4.841-7.533-11.301-7.533-18.149c0-6.87,2.677-13.33,7.526-18.157c4.856-4.863,11.312-7.544,18.171-7.544
			c6.866,0,13.315,2.681,18.16,7.529l70.836,70.844c10.012,10.005,10.012,26.301,0,36.321
			C170.11,412.063,163.654,414.733,156.795,414.733z M85.963,268.406c-13.308,0-25.822,5.178-35.233,14.59
			c-9.408,9.382-14.59,21.899-14.59,35.193c-0.007,13.323,5.182,25.847,14.597,35.262l70.825,70.825
			c9.415,9.412,21.925,14.586,35.233,14.586s25.818-5.175,35.233-14.586c19.42-19.435,19.42-51.035,0-70.448l-70.833-70.833
			C111.78,273.584,99.271,268.406,85.963,268.406z M85.963,485.558c-6.87,0-13.315-2.67-18.164-7.518
			c-4.856-4.856-7.533-11.305-7.533-18.168c0-6.855,2.677-13.304,7.533-18.16l70.825-70.814c4.856-4.863,11.305-7.54,18.171-7.54
			c6.859,0,13.308,2.677,18.164,7.54c10.012,10.005,10.012,26.301,0,36.321l-70.818,70.825
			C99.285,482.888,92.829,485.558,85.963,485.558z M156.795,339.238c-13.308,0-25.825,5.171-35.233,14.608l-70.825,70.8
			c-9.415,9.412-14.597,21.921-14.597,35.226c0,13.308,5.182,25.822,14.59,35.237c9.412,9.401,21.925,14.579,35.233,14.579
			s25.818-5.178,35.233-14.579l70.833-70.833c19.413-19.435,19.413-51.035,0-70.448
			C182.613,344.409,170.103,339.238,156.795,339.238"/>
		<path id="path32" fill="#FFFFFF" d="M960.917,354.41c0-16.769-13.608-30.392-30.381-30.392c-16.787,0-30.381,13.623-30.381,30.392
			c0,16.783,13.594,30.374,30.381,30.374C947.309,384.784,960.917,371.194,960.917,354.41"/>
	</g>
</g>
</svg>
